<svg xmlns="http://www.w3.org/2000/svg" width="3454" height="2473" viewBox="0 0 3454 2473" version="1.1"><path d="M 1139 991.939 C 1087.042 992.501, 1077.744 992.824, 1073.147 994.233 C 1070.202 995.135, 1067.551 996.116, 1067.255 996.412 C 1066.959 996.708, 1068.348 1001.212, 1070.342 1006.422 C 1073.874 1015.649, 1073.924 1015.970, 1072.281 1018.833 C 1070.654 1021.669, 1070.692 1022.020, 1073.376 1028.861 C 1078.518 1041.967, 1095.322 1066.273, 1111.284 1083.694 C 1132.876 1107.257, 1155.043 1124.153, 1182.847 1138.237 C 1190.188 1141.955, 1196.586 1144.756, 1197.064 1144.460 C 1197.542 1144.165, 1200.536 1145.272, 1203.717 1146.920 C 1214.831 1152.680, 1235.049 1158.222, 1256.678 1161.436 C 1272.183 1163.740, 1292.448 1164.920, 1335.500 1166.023 C 1378.156 1167.116, 1395.432 1168.083, 1417 1170.582 C 1465.053 1176.150, 1510.155 1191.363, 1537 1211.056 C 1544.460 1216.529, 1556.212 1228.410, 1560.683 1235 C 1565.483 1242.074, 1570.851 1253.375, 1574.149 1263.346 C 1576.866 1271.563, 1577.177 1273.780, 1577.184 1285 C 1577.209 1325.892, 1554.540 1369.588, 1515.221 1404.437 C 1471.048 1443.588, 1419.486 1473.860, 1349 1502.023 C 1316.171 1515.140, 1272.280 1530.645, 1234.069 1542.624 C 1196.925 1554.268, 1193.942 1555.368, 1190.984 1558.517 L 1188.639 1561.013 1191.479 1563.978 C 1193.209 1565.784, 1196.897 1567.789, 1200.910 1569.106 C 1204.534 1570.295, 1207.910 1571.504, 1208.410 1571.792 C 1208.911 1572.080, 1206.703 1573.258, 1203.504 1574.408 C 1200.001 1575.668, 1196.893 1577.571, 1195.691 1579.193 C 1193.785 1581.764, 1193.772 1582.003, 1195.412 1584.506 C 1197.319 1587.416, 1204.711 1590.997, 1208.833 1591.006 C 1210.300 1591.010, 1212.682 1591.629, 1214.127 1592.383 C 1215.572 1593.137, 1220.522 1595.007, 1225.127 1596.538 C 1279.490 1614.615, 1321.818 1645.036, 1353.134 1688.539 C 1360.184 1698.333, 1371.799 1716.033, 1373.780 1720 C 1374.466 1721.375, 1376.448 1724.750, 1378.185 1727.500 C 1381.533 1732.801, 1382.990 1735.466, 1392.949 1754.500 C 1403.333 1774.347, 1419.011 1806.622, 1419.003 1808.137 C 1419.001 1808.488, 1421.300 1813.663, 1424.112 1819.637 C 1426.923 1825.612, 1430.024 1832.525, 1431.001 1835 C 1431.979 1837.475, 1434.628 1843.446, 1436.889 1848.269 C 1439.150 1853.092, 1441 1857.252, 1441 1857.512 C 1441 1858.081, 1454.980 1889.989, 1458.971 1898.529 C 1460.520 1901.844, 1463.014 1907.469, 1464.512 1911.029 C 1471.540 1927.729, 1498.178 1980.023, 1506.590 1993.636 C 1509.016 1997.561, 1511 2001.036, 1511 2001.358 C 1511 2002.838, 1531.099 2032.932, 1539.684 2044.307 C 1553.742 2062.932, 1573.225 2083.887, 1586.796 2094.979 C 1613.139 2116.508, 1640.619 2129.515, 1670.596 2134.641 C 1683.567 2136.859, 1713.250 2136.864, 1728.188 2134.650 C 1755.029 2130.673, 1785.190 2120.512, 1815.500 2105.237 C 1826.556 2099.665, 1847.892 2087.904, 1855.684 2083.087 C 1857.985 2081.664, 1862.035 2079.227, 1864.684 2077.672 C 1867.333 2076.116, 1870.963 2073.985, 1872.750 2072.936 C 1878.434 2069.601, 1877.183 2067.633, 1866.808 2063.585 C 1861.752 2061.613, 1855.002 2059.459, 1851.808 2058.799 C 1848.614 2058.140, 1846 2057.259, 1846 2056.843 C 1846 2056.427, 1850.039 2053.705, 1854.976 2050.793 C 1868.379 2042.889, 1867.240 2040.809, 1846.834 2035.932 C 1815.644 2028.478, 1814.093 2027.956, 1796.500 2019.004 C 1727.847 1984.067, 1690.088 1949.920, 1659.549 1895.154 C 1647.996 1874.437, 1641.015 1858.028, 1624.172 1812 C 1609.934 1773.095, 1604.254 1759.653, 1590.997 1733.500 C 1567.645 1687.430, 1546.857 1654.850, 1522.199 1625.679 C 1517.868 1620.555, 1515.114 1616.486, 1515.629 1615.971 C 1516.116 1615.484, 1524.387 1611.755, 1534.007 1607.685 C 1563.848 1595.061, 1581.825 1585.461, 1607 1568.706 C 1631.447 1552.435, 1647.830 1539.315, 1666.380 1521.152 C 1702.934 1485.363, 1726.711 1447.677, 1742.502 1400.500 C 1746 1390.050, 1749.566 1377.675, 1750.427 1373 C 1755.240 1346.863, 1756.121 1340.989, 1757.600 1325.167 C 1759.104 1309.073, 1759.100 1306.607, 1757.542 1290.667 C 1755.597 1270.773, 1753.401 1256.302, 1751.405 1250.215 C 1750.632 1247.858, 1750 1244.662, 1750 1243.111 C 1750 1240.309, 1742.915 1217.774, 1740.533 1213 C 1739.847 1211.625, 1739.014 1209.069, 1738.682 1207.320 C 1738.350 1205.570, 1735.810 1199.474, 1733.039 1193.771 C 1730.268 1188.069, 1727.995 1182.975, 1727.988 1182.452 C 1727.982 1181.928, 1725.726 1177.900, 1722.975 1173.500 C 1720.224 1169.100, 1717.259 1163.946, 1716.388 1162.046 C 1715.516 1160.146, 1712.916 1156.096, 1710.611 1153.046 C 1708.306 1149.996, 1705.621 1146.233, 1704.644 1144.684 C 1703.667 1143.135, 1702.110 1140.931, 1701.184 1139.785 C 1680.148 1113.761, 1652.319 1087.853, 1626 1069.790 C 1586.517 1042.693, 1535.812 1020.566, 1485.500 1008.478 C 1448.924 999.691, 1414.836 995.066, 1371.500 993.011 C 1343.980 991.706, 1215.465 991.114, 1139 991.939 M 3153 1206.368 C 3140.556 1210.929, 3080.336 1233.140, 3056 1242.146 C 3022.501 1254.542, 3020 1256.134, 3020 1265.073 C 3020 1275.310, 3024.361 1282.366, 3033.733 1287.290 C 3041.697 1291.476, 3049.125 1298.865, 3052.321 1305.783 L 3054.500 1310.500 3054.790 1535.500 C 3054.987 1688.273, 3054.741 1763.710, 3054.025 1770.500 C 3052.681 1783.246, 3049.784 1789.630, 3043.437 1793.834 C 3038.757 1796.934, 3033.625 1798.147, 3017.544 1799.952 C 3006.540 1801.187, 3004.530 1802.765, 3002.929 1811.426 C 3001.181 1820.884, 3003.152 1828.477, 3008.118 1831.411 C 3010.986 1833.105, 3016.786 1833.195, 3114.226 1833.056 C 3185.284 1832.955, 3217.953 1832.576, 3219.401 1831.838 C 3224.060 1829.459, 3224.954 1827.057, 3224.978 1816.856 C 3224.999 1807.644, 3224.874 1807.076, 3222.181 1804.194 C 3220.039 1801.901, 3218.180 1801.035, 3214.431 1800.585 C 3192.877 1797.997, 3182.934 1794.551, 3178.805 1788.237 C 3175.669 1783.443, 3175.208 1782.145, 3173.221 1772.500 C 3171.726 1765.242, 3171.539 1743.738, 3171.203 1540.500 C 3170.949 1386.591, 3171.204 1300.798, 3172.017 1266.319 C 3173.274 1213.029, 3173.182 1211.378, 3168.721 1207.228 C 3165.168 1203.923, 3160.386 1203.661, 3153 1206.368 M 1874.500 1468.500 C 1808.564 1476.088, 1758.252 1506.965, 1725.471 1559.959 C 1708.082 1588.071, 1699.503 1621.686, 1699.685 1661 C 1699.773 1680.090, 1700.777 1690.019, 1704.590 1709.500 C 1711.377 1744.173, 1732.024 1777.808, 1760.500 1800.577 C 1787.870 1822.463, 1818.023 1835.510, 1855.500 1841.685 C 1870.961 1844.232, 1910.955 1844.240, 1930 1841.699 C 1997.473 1832.696, 2046.369 1801.278, 2074.287 1748.988 C 2080.889 1736.624, 2089.085 1713.615, 2091.915 1699.500 C 2097.139 1673.448, 2096.541 1633.357, 2090.507 1605.143 C 2088.078 1593.785, 2080.446 1572.887, 2074.921 1562.467 C 2064.585 1542.972, 2047.076 1521.814, 2032 1510.602 C 2028.975 1508.352, 2026.275 1506.248, 2026 1505.925 C 2024.388 1504.035, 2008.773 1494.347, 1999.898 1489.729 C 1976.855 1477.742, 1954.231 1470.849, 1928.789 1468.063 C 1916.122 1466.676, 1888.407 1466.899, 1874.500 1468.500 M 2770.500 1467.589 C 2717.901 1472.786, 2680.917 1487.336, 2637.425 1519.942 C 2628.876 1526.352, 2610.969 1544.824, 2607.727 1550.578 C 2601.223 1562.122, 2597.947 1569.992, 2596.520 1577.500 C 2592.917 1596.466, 2596.007 1606.546, 2606.673 1610.619 C 2617.542 1614.770, 2646.726 1608.690, 2668.500 1597.738 C 2685.443 1589.215, 2690.782 1581.937, 2695.450 1561 C 2699.970 1540.724, 2703.341 1533.105, 2711.512 1524.691 C 2719.487 1516.479, 2734.571 1511.759, 2745.667 1514.004 C 2761.855 1517.280, 2774.587 1530.064, 2780.907 1549.389 C 2787.115 1568.369, 2787.504 1570.931, 2787.450 1592.500 C 2787.404 1610.952, 2787.229 1612.877, 2785.186 1617.365 C 2779.987 1628.792, 2775.668 1631.491, 2751.328 1638.523 C 2700.204 1653.295, 2657.547 1667.537, 2643.900 1674.391 C 2617.295 1687.754, 2602.172 1704.659, 2595.856 1728.098 C 2592.773 1739.540, 2592.543 1763.472, 2595.401 1775.500 C 2604.977 1815.798, 2639.722 1841.969, 2686 1843.742 C 2705.456 1844.487, 2722.023 1840.928, 2740.500 1832.035 C 2748.438 1828.215, 2765.339 1817.625, 2769.118 1814.105 C 2770.201 1813.096, 2773.363 1811.032, 2776.145 1809.517 C 2784.756 1804.831, 2786.666 1805.571, 2813.500 1823.993 C 2834.377 1838.325, 2847.176 1842.755, 2870.500 1843.724 C 2890.594 1844.558, 2907.414 1840.793, 2927.500 1830.962 C 2943.021 1823.366, 2965.234 1807.282, 2971.462 1799.131 C 2975.614 1793.698, 2974.272 1783.089, 2968.857 1778.533 C 2964.915 1775.216, 2961.393 1775.316, 2953.037 1778.984 C 2945.417 1782.328, 2935.289 1784.963, 2929.968 1784.985 C 2919.210 1785.030, 2908.784 1779.239, 2902.381 1769.661 C 2896.502 1760.868, 2894.979 1756.964, 2893.309 1746.406 C 2891.994 1738.093, 2892.017 1730.584, 2893.525 1678.281 C 2896.347 1580.353, 2896.489 1562.803, 2894.564 1549.502 C 2888.584 1508.183, 2859.362 1478.043, 2816.975 1469.475 C 2809.739 1468.012, 2778.887 1466.760, 2770.500 1467.589 M 2132.216 1479.505 C 2123.326 1483.368, 2122.694 1503.822, 2131.291 1509.455 C 2132.643 1510.341, 2137.900 1511.686, 2142.972 1512.444 C 2153.493 1514.015, 2161.917 1517.711, 2169.060 1523.888 C 2174.550 1528.635, 2182.559 1540.292, 2185.188 1547.362 C 2186.239 1550.188, 2187.702 1553.850, 2188.440 1555.500 C 2193.103 1565.928, 2195.940 1572.885, 2196.587 1575.476 C 2196.996 1577.112, 2198.654 1581.387, 2200.271 1584.976 C 2205.841 1597.331, 2206.764 1599.507, 2207.492 1602 C 2207.893 1603.375, 2210.596 1610.125, 2213.498 1617 C 2216.400 1623.875, 2219.221 1631.075, 2219.767 1633 C 2220.313 1634.925, 2222.789 1641.225, 2225.270 1647 C 2227.751 1652.775, 2230.241 1659.075, 2230.805 1661 C 2231.368 1662.925, 2233.479 1668.325, 2235.496 1673 C 2237.513 1677.675, 2240.191 1684.425, 2241.446 1688 C 2242.701 1691.575, 2245.413 1698.550, 2247.472 1703.500 C 2249.531 1708.450, 2252.566 1716.325, 2254.218 1721 C 2255.869 1725.675, 2259.195 1734.133, 2261.610 1739.795 C 2264.024 1745.457, 2266 1750.659, 2266 1751.355 C 2266 1752.051, 2268.301 1758.218, 2271.113 1765.060 C 2273.924 1771.902, 2276.796 1779.525, 2277.494 1782 C 2278.191 1784.475, 2280.320 1790.325, 2282.223 1795 C 2284.127 1799.675, 2287.847 1810.025, 2290.491 1818 C 2295.099 1831.900, 2295.299 1832.976, 2295.327 1844 C 2295.354 1854.906, 2295.160 1856.017, 2291.579 1865.500 C 2287.071 1877.439, 2275.244 1902.849, 2269.856 1912.174 C 2267.735 1915.845, 2266 1919.326, 2266 1919.909 C 2266 1921.417, 2260.276 1930.730, 2256.268 1935.744 C 2254.402 1938.079, 2250.874 1941.162, 2248.428 1942.595 C 2240.110 1947.469, 2235.921 1948.197, 2211.500 1949.012 C 2186.516 1949.846, 2179.930 1950.957, 2170.080 1956 C 2160.731 1960.787, 2154.284 1967.278, 2150.301 1975.916 C 2147.208 1982.623, 2146.744 1984.714, 2146.288 1994 C 2145.123 2017.727, 2153.068 2034.843, 2169.025 2042.983 C 2188.631 2052.985, 2220.801 2051.171, 2241.722 2038.884 C 2250.350 2033.818, 2262.503 2021.032, 2269.688 2009.463 C 2273.092 2003.983, 2276.304 1998.375, 2276.827 1997 C 2277.350 1995.625, 2282.800 1984.150, 2288.938 1971.500 C 2305.882 1936.578, 2310.753 1926.501, 2316.491 1914.500 C 2319.383 1908.450, 2324.688 1897.425, 2328.278 1890 C 2331.869 1882.575, 2337.397 1871.100, 2340.564 1864.500 C 2343.731 1857.900, 2348.837 1847.312, 2351.911 1840.970 C 2354.985 1834.629, 2357.971 1828.329, 2358.548 1826.970 C 2359.124 1825.612, 2360.973 1821.800, 2362.657 1818.500 C 2364.342 1815.200, 2368.999 1805.750, 2373.008 1797.500 C 2386.908 1768.892, 2428.635 1685.716, 2447.255 1649.500 C 2448.104 1647.850, 2449.701 1644.700, 2450.804 1642.500 C 2459.885 1624.393, 2469.301 1606.334, 2470.069 1605.550 C 2470.581 1605.028, 2471 1603.956, 2471 1603.169 C 2471 1602.382, 2473.700 1596.834, 2477 1590.839 C 2480.300 1584.844, 2483 1579.519, 2483 1579.005 C 2483 1578.492, 2485.475 1573.539, 2488.500 1568 C 2491.525 1562.461, 2494 1557.445, 2494 1556.853 C 2494 1556.262, 2496.363 1551.964, 2499.250 1547.302 C 2502.137 1542.640, 2505.066 1537.785, 2505.757 1536.512 C 2508.016 1532.353, 2519.813 1522.346, 2526.731 1518.719 C 2534.817 1514.480, 2543.051 1512.222, 2553.666 1511.332 C 2568.807 1510.063, 2572.287 1506.613, 2571.800 1493.354 C 2571.467 1484.306, 2570.144 1481.843, 2564.282 1479.362 C 2559.760 1477.448, 2416.345 1477.490, 2411 1479.408 C 2405.281 1481.459, 2403 1485.909, 2403 1495.013 C 2403 1507.113, 2405.943 1509.678, 2424.411 1513.674 C 2439.572 1516.955, 2444 1519.962, 2444 1526.978 C 2444 1530.485, 2439.261 1543.931, 2432.009 1561 C 2429.322 1567.325, 2425.463 1576.550, 2423.435 1581.500 C 2413.398 1605.991, 2411.627 1610.183, 2407.598 1619 C 2402.320 1630.548, 2398.046 1640.423, 2392.882 1653 C 2390.736 1658.225, 2388.120 1664.300, 2387.069 1666.500 C 2383.875 1673.180, 2380.421 1681.227, 2378.483 1686.500 C 2376.105 1692.972, 2371.847 1700, 2370.304 1700 C 2369.639 1700, 2368.682 1698.537, 2368.178 1696.750 C 2367.675 1694.963, 2364.953 1687.995, 2362.131 1681.266 C 2359.309 1674.538, 2357 1668.415, 2357 1667.661 C 2357 1666.907, 2354.579 1660.487, 2351.620 1653.395 C 2348.661 1646.303, 2345.924 1639.375, 2345.537 1638 C 2345.151 1636.625, 2342.397 1629.370, 2339.418 1621.877 C 2336.438 1614.384, 2334 1607.826, 2334 1607.302 C 2334 1606.779, 2331.599 1600.523, 2328.665 1593.400 C 2325.731 1586.278, 2323.003 1579.111, 2322.603 1577.475 C 2322.203 1575.839, 2319.429 1568.379, 2316.438 1560.898 C 2313.447 1553.417, 2311 1546.667, 2310.999 1545.898 C 2310.999 1545.129, 2310.099 1542.133, 2308.999 1539.239 C 2306.389 1532.372, 2306.394 1526.040, 2309.011 1522.713 C 2311.360 1519.727, 2322.013 1515.932, 2335.190 1513.389 C 2350.299 1510.472, 2355.003 1505.989, 2354.996 1494.516 C 2354.992 1487.494, 2352.780 1483.056, 2347.759 1479.995 C 2344.561 1478.045, 2342.546 1478.008, 2240 1478.043 C 2151.754 1478.073, 2134.989 1478.300, 2132.216 1479.505 M 1886.159 1510.017 C 1866.773 1514.081, 1851.196 1530.989, 1839.650 1560.500 C 1832.618 1578.475, 1829.221 1596.087, 1826.934 1626.420 C 1825.804 1641.418, 1826.846 1664.874, 1829.555 1685.415 C 1830.350 1691.442, 1831 1698.213, 1831 1700.462 C 1831 1702.710, 1832.363 1710.132, 1834.029 1716.955 C 1842.749 1752.666, 1856.211 1778.052, 1873.091 1790.623 C 1883.850 1798.634, 1889.937 1800.509, 1905 1800.455 C 1916.831 1800.412, 1917.911 1800.235, 1925.172 1797.144 C 1930.538 1794.860, 1934.820 1792.067, 1939.422 1787.851 C 1943.040 1784.535, 1946 1781.403, 1946 1780.890 C 1946 1780.377, 1947.109 1778.279, 1948.465 1776.229 C 1952.100 1770.729, 1955.767 1759.823, 1957.601 1749.054 C 1958.492 1743.827, 1959.593 1738.570, 1960.049 1737.372 C 1960.504 1736.173, 1961.821 1729.637, 1962.975 1722.846 C 1964.129 1716.056, 1965.519 1708.700, 1966.063 1706.500 C 1966.607 1704.300, 1967.659 1697.764, 1968.402 1691.976 C 1970.900 1672.504, 1966.282 1621.564, 1959.021 1588.500 C 1950.956 1551.772, 1933.797 1523.234, 1914.512 1514.472 C 1904.240 1509.804, 1894.484 1508.272, 1886.159 1510.017 M 2772.430 1675.046 C 2738.515 1679.477, 2716.385 1694.250, 2709.424 1717.108 C 2707.252 1724.238, 2706.928 1726.928, 2707.268 1735 C 2707.874 1749.411, 2711.581 1759.590, 2719.718 1769.178 C 2730.804 1782.242, 2747.777 1787.928, 2762.572 1783.534 C 2768.606 1781.743, 2776.243 1774.422, 2778.364 1768.397 C 2780.055 1763.590, 2783.970 1699.910, 2783.997 1676.750 C 2784 1673.660, 2783.552 1673.594, 2772.430 1675.046 M 1982 2185.599 C 1982 2186.008, 1982.641 2187.053, 1983.425 2187.921 C 1984.209 2188.790, 1986.084 2193.100, 1987.591 2197.500 C 1990.096 2204.811, 1990.370 2207.101, 1990.783 2224.092 C 1991.302 2245.490, 1990.261 2253.826, 1985.926 2262.992 C 1984.317 2266.395, 1983 2269.413, 1983 2269.699 C 1983 2269.984, 1994.588 2270.010, 2008.750 2269.757 C 2037.201 2269.247, 2040.529 2268.633, 2050.182 2262.113 C 2056.468 2257.866, 2059.705 2253.853, 2063.579 2245.500 C 2070.731 2230.077, 2069.779 2215.471, 2060.793 2202.803 C 2053.096 2191.951, 2045.366 2189.663, 2007.500 2187.026 C 1999.250 2186.452, 1990.138 2185.729, 1987.250 2185.419 C 1984.362 2185.109, 1982 2185.191, 1982 2185.599 M 1278.708 2186.750 C 1277.859 2188.303, 1275.784 2199.853, 1276.154 2200.963 C 1276.405 2201.715, 1277.775 2201.285, 1280.056 2199.736 C 1284.061 2197.019, 1295.003 2194, 1300.847 2194 C 1305.470 2194, 1305.496 2194.060, 1306.983 2208.176 C 1308.873 2226.118, 1307.710 2247.516, 1304.030 2262.500 C 1302.361 2269.296, 1301.861 2269, 1315 2269 C 1321.600 2269, 1327 2268.870, 1327 2268.712 C 1327 2268.554, 1325.545 2264.391, 1323.766 2259.462 L 1320.532 2250.500 1320.189 2226.392 C 1319.799 2198.903, 1320.372 2194.917, 1324.993 2193.003 C 1330.539 2190.706, 1338.497 2192.859, 1347.680 2199.141 C 1349.979 2200.713, 1352.089 2202, 1352.369 2202 C 1352.649 2202, 1353.150 2199.863, 1353.483 2197.250 C 1353.816 2194.637, 1354.314 2191.037, 1354.589 2189.250 L 1355.091 2186 1317.104 2186 C 1296.212 2186, 1278.934 2186.338, 1278.708 2186.750 M 2157.128 2187.093 C 2146.356 2190.375, 2140.636 2201.354, 2143.431 2213.381 C 2144.978 2220.037, 2148.224 2223.959, 2157.359 2230.212 C 2174.914 2242.229, 2180.013 2255.805, 2169.092 2261.453 C 2162.359 2264.934, 2142.255 2256.264, 2139.769 2248.806 C 2139.508 2248.025, 2138.793 2248.041, 2137.260 2248.861 L 2135.115 2250.009 2137.637 2255.754 C 2139.024 2258.915, 2140.640 2262.494, 2141.227 2263.709 C 2142.469 2266.281, 2149.191 2269.687, 2154.791 2270.582 C 2162.795 2271.862, 2175.417 2267.713, 2181.712 2261.733 C 2188.018 2255.742, 2188.247 2241.361, 2182.159 2233.700 C 2178.662 2229.300, 2171.704 2223.538, 2163.942 2218.614 C 2153.207 2211.805, 2149.075 2203.097, 2154.264 2198.222 C 2155.509 2197.052, 2158.249 2195.376, 2160.353 2194.497 C 2163.865 2193.029, 2164.579 2193.032, 2169.078 2194.526 C 2171.772 2195.421, 2174.239 2196.577, 2174.559 2197.095 C 2174.879 2197.614, 2177.360 2199.162, 2180.071 2200.536 C 2184.525 2202.793, 2185 2202.862, 2185 2201.255 C 2185 2198.542, 2178.808 2189.675, 2175.961 2188.310 C 2172.394 2186.601, 2161.133 2185.873, 2157.128 2187.093 M 1587.750 2187.670 C 1584.037 2187.902, 1581 2188.241, 1581 2188.425 C 1581 2188.608, 1582.095 2191.175, 1583.433 2194.129 C 1587.112 2202.250, 1588.367 2210.921, 1588.335 2228 C 1588.303 2245.389, 1586.608 2256.007, 1582.587 2264.014 L 1580.083 2269 1592.666 2269 L 1605.250 2269 1604.576 2265.750 C 1604.205 2263.963, 1603.472 2258.900, 1602.948 2254.500 C 1602.423 2250.100, 1601.362 2244.139, 1600.588 2241.253 C 1598.981 2235.252, 1599.510 2234.498, 1604.654 2235.463 C 1610.960 2236.646, 1612.845 2238.164, 1618.715 2246.784 C 1626.393 2258.059, 1630.147 2262.244, 1635.884 2265.926 C 1640.651 2268.984, 1648.418 2270.821, 1651.532 2269.626 C 1653.549 2268.852, 1653.085 2268.229, 1631.531 2242.792 C 1627.939 2238.553, 1625 2234.437, 1625 2233.646 C 1625 2232.854, 1626.688 2230.733, 1628.750 2228.932 C 1634.532 2223.882, 1636.621 2220.500, 1638.014 2213.936 C 1640.476 2202.333, 1636.384 2193.556, 1626.612 2189.480 C 1622.543 2187.782, 1601.595 2186.807, 1587.750 2187.670 M 1880.510 2190.984 C 1879.126 2193.176, 1876.866 2198.013, 1875.488 2201.734 C 1874.109 2205.456, 1872.559 2209.400, 1872.043 2210.500 C 1870.599 2213.580, 1865.460 2227.026, 1864.017 2231.500 C 1862.254 2236.964, 1852.605 2256.977, 1848.967 2262.713 C 1847.335 2265.286, 1846 2267.753, 1846 2268.196 C 1846 2268.638, 1850.983 2269, 1857.073 2269 L 1868.145 2269 1866.130 2266.438 C 1862.353 2261.637, 1861.581 2257.400, 1863.529 2252.168 C 1866.236 2244.899, 1869.464 2241.222, 1874.277 2239.923 C 1879.504 2238.514, 1887.657 2239.379, 1890.116 2241.605 C 1892.523 2243.784, 1895.572 2252.082, 1896.506 2259 C 1897.888 2269.233, 1897.609 2269, 1908.475 2269 C 1913.714 2269, 1918 2268.822, 1918 2268.604 C 1918 2268.386, 1916.477 2264.898, 1914.616 2260.854 C 1909.563 2249.874, 1901.360 2230.049, 1899.987 2225.500 C 1897.797 2218.244, 1890.959 2198.561, 1889.466 2195.216 C 1888.660 2193.410, 1888 2190.822, 1888 2189.466 C 1888 2187.506, 1887.490 2187, 1885.513 2187 C 1883.700 2187, 1882.343 2188.081, 1880.510 2190.984 M 2349 2187.573 C 2349 2187.997, 2350.190 2191.303, 2351.645 2194.922 C 2359.097 2213.459, 2358.462 2248.892, 2350.320 2268.842 C 2349.867 2269.950, 2354.025 2270.111, 2374.136 2269.764 C 2401.479 2269.293, 2405.366 2268.524, 2415.419 2261.600 C 2422.498 2256.725, 2424.246 2254.679, 2428.324 2246.500 C 2435.451 2232.205, 2435.403 2220.888, 2428.159 2207.636 C 2423.390 2198.913, 2416.361 2193.005, 2407 2189.853 C 2401.155 2187.886, 2397.905 2187.622, 2374.750 2187.234 C 2360.588 2186.997, 2349 2187.150, 2349 2187.573 M 2651 2188.907 C 2641.302 2192.322, 2634.922 2202.311, 2636.890 2211 C 2638.507 2218.141, 2642.574 2223.701, 2649.607 2228.389 C 2651.748 2229.816, 2656.021 2232.675, 2659.102 2234.742 C 2662.183 2236.809, 2666.233 2240.263, 2668.102 2242.417 C 2670.954 2245.704, 2671.500 2247.108, 2671.500 2251.150 C 2671.500 2255.387, 2671.047 2256.420, 2667.731 2259.733 C 2664.106 2263.356, 2663.704 2263.498, 2657.231 2263.457 C 2648.588 2263.402, 2645.379 2261.666, 2639.856 2254.058 C 2637.460 2250.758, 2635.249 2248.045, 2634.941 2248.029 C 2634.634 2248.013, 2633.635 2248.563, 2632.722 2249.250 C 2631.192 2250.402, 2631.252 2250.968, 2633.494 2256.500 C 2639.231 2270.660, 2653.273 2274.515, 2670.456 2266.649 C 2679.286 2262.606, 2684.502 2252.146, 2682.067 2243.363 C 2679.471 2233.997, 2673.096 2226.957, 2660.086 2219.091 C 2653.958 2215.385, 2651.528 2212.916, 2649.446 2208.282 C 2647.191 2203.264, 2647.661 2200.721, 2651.537 2196.964 C 2656.599 2192.058, 2660.332 2192.396, 2672.423 2198.857 C 2677.690 2201.671, 2682 2203.502, 2682 2202.925 C 2682 2199.935, 2678.519 2191.897, 2676.337 2189.846 C 2674.174 2187.813, 2672.685 2187.465, 2665.171 2187.235 C 2658.628 2187.035, 2655.150 2187.446, 2651 2188.907 M 2886.105 2188.530 C 2873.273 2192.105, 2862.552 2201.482, 2858 2213.113 C 2855.886 2218.514, 2855.505 2221.121, 2855.532 2230 C 2855.562 2239.616, 2855.825 2241.052, 2858.653 2247.055 C 2862.485 2255.188, 2870.877 2263.058, 2878.955 2266.093 C 2888.566 2269.704, 2895.069 2270.253, 2912.272 2268.908 C 2926.989 2267.758, 2928.069 2267.536, 2928.430 2265.588 C 2930.158 2256.271, 2932.121 2239.757, 2931.647 2238.523 C 2931.170 2237.281, 2928.938 2237, 2919.531 2237 C 2908.840 2237, 2905.146 2237.959, 2909.956 2239.486 C 2911.032 2239.828, 2913.057 2241.467, 2914.456 2243.130 C 2917.435 2246.670, 2917.972 2254.168, 2915.499 2257.697 C 2911.693 2263.131, 2894.997 2264.602, 2886.500 2260.252 C 2880.897 2257.383, 2875.100 2251.453, 2872.637 2246.070 C 2870.838 2242.137, 2870.543 2239.548, 2870.523 2227.500 C 2870.508 2218.620, 2870.968 2212.183, 2871.779 2209.899 C 2873.812 2204.171, 2882.211 2196.532, 2888.847 2194.375 C 2901.380 2190.300, 2910.757 2192.730, 2921.167 2202.751 L 2927.835 2209.169 2928.553 2203.419 C 2929.546 2195.473, 2928.254 2190.892, 2924.500 2189.041 C 2920.084 2186.864, 2893.363 2186.508, 2886.105 2188.530 M 3006.361 2188.215 L 3003.223 2189.225 3006.069 2193.863 C 3007.953 2196.932, 3009.637 2202.049, 3011.051 2209 C 3014.796 2227.409, 3012.335 2257.454, 3006.332 2266.617 L 3004.770 2269 3017.885 2269 C 3025.098 2269, 3031 2268.832, 3031 2268.626 C 3031 2268.420, 3029.445 2266.554, 3027.544 2264.478 C 3022.816 2259.316, 3020.945 2254.983, 3019.834 2246.616 C 3018.877 2239.418, 3019.644 2214.137, 3020.923 2210.679 C 3021.502 2209.114, 3023.453 2210.777, 3032.624 2220.651 C 3038.677 2227.168, 3047.314 2236.325, 3051.816 2241 C 3056.318 2245.675, 3064.164 2254.058, 3069.251 2259.629 C 3076.525 2267.595, 3078.851 2269.575, 3080.144 2268.900 C 3081.598 2268.142, 3081.845 2264.490, 3082.284 2237.272 C 3082.596 2217.980, 3083.222 2205.008, 3083.963 2202.500 C 3085.939 2195.816, 3087.306 2188.972, 3086.771 2188.437 C 3086.493 2188.159, 3081.227 2188.060, 3075.070 2188.216 L 3063.874 2188.500 3067.294 2192.500 C 3071.693 2197.644, 3074.575 2203.387, 3075.477 2208.803 C 3076.104 2212.569, 3074.479 2239.255, 3073.405 2242.823 C 3072.978 2244.241, 3047.982 2219.023, 3038.890 2208 C 3035.941 2204.425, 3030.322 2198.238, 3026.404 2194.250 C 3019.421 2187.143, 3019.184 2187.002, 3014.390 2187.102 C 3011.701 2187.158, 3008.088 2187.659, 3006.361 2188.215 M 3175.751 2189.364 C 3169.449 2192.008, 3166.880 2194.435, 3163.966 2200.500 C 3158.946 2210.948, 3163.871 2220.680, 3179.500 2231.198 C 3190.498 2238.599, 3191.554 2239.490, 3195.146 2244.400 C 3199.395 2250.207, 3198.974 2253.312, 3193.143 2259.143 C 3188.305 2263.980, 3186.684 2264.581, 3180.008 2264.007 C 3175.320 2263.605, 3169.945 2259.932, 3165.312 2253.965 C 3160.403 2247.644, 3160.264 2247.546, 3158.133 2248.896 C 3156.589 2249.875, 3157.681 2254.337, 3161.155 2261.249 C 3166.323 2271.530, 3181.209 2273.533, 3196.579 2266.016 C 3201.606 2263.557, 3203.121 2262.193, 3205.329 2258.136 C 3209.031 2251.336, 3208.957 2244.828, 3205.094 2237.221 C 3201.409 2229.964, 3196.356 2225.337, 3184.930 2218.758 C 3179.394 2215.570, 3175.019 2209.558, 3174.292 2204.139 C 3173.828 2200.680, 3174.134 2199.780, 3176.529 2197.561 C 3178.055 2196.146, 3181.006 2194.479, 3183.087 2193.856 C 3186.488 2192.837, 3187.406 2193.001, 3192.185 2195.482 C 3195.108 2196.999, 3199.435 2199.537, 3201.800 2201.121 C 3206.735 2204.425, 3208.528 2204.779, 3207.510 2202.250 C 3207.123 2201.287, 3206.179 2198.436, 3205.413 2195.914 C 3203.209 2188.659, 3201.317 2187.546, 3190.647 2187.226 C 3182.847 2186.993, 3180.654 2187.308, 3175.751 2189.364 M 1422 2188.374 C 1422 2188.580, 1423.072 2190.717, 1424.382 2193.124 C 1429.086 2201.764, 1430.504 2210.733, 1430.452 2231.500 C 1430.411 2247.807, 1430.105 2251.512, 1428.296 2257.639 C 1427.137 2261.566, 1425.680 2265.729, 1425.059 2266.889 C 1423.933 2268.994, 1423.974 2269, 1439.145 2269 L 1454.360 2269 1450.154 2265.400 C 1443.291 2259.525, 1442.556 2256.988, 1442.866 2240.250 L 1443 2233 1466 2233 C 1478.650 2233, 1488.997 2233.338, 1488.993 2233.750 C 1488.989 2234.162, 1488.067 2240.350, 1486.943 2247.500 C 1485.820 2254.650, 1484.639 2262.412, 1484.320 2264.750 L 1483.740 2269 1496.370 2269 C 1503.316 2269, 1509 2268.757, 1509 2268.460 C 1509 2268.162, 1508.101 2266.700, 1507.002 2265.210 C 1496.941 2251.569, 1496.604 2206.463, 1506.450 2191.436 C 1507.303 2190.135, 1508 2188.830, 1508 2188.535 C 1508 2188.241, 1502.539 2188, 1495.864 2188 L 1483.728 2188 1484.436 2192.750 C 1486.713 2208.020, 1487.940 2217.962, 1487.968 2221.356 L 1488 2225.212 1468.750 2224.819 C 1453.195 2224.501, 1448.899 2224.104, 1446.371 2222.750 C 1442.453 2220.651, 1441.994 2219.430, 1442.024 2211.168 C 1442.057 2202.041, 1443.220 2197.770, 1446.882 2193.326 C 1448.597 2191.246, 1450 2189.197, 1450 2188.772 C 1450 2188.347, 1443.700 2188, 1436 2188 C 1428.300 2188, 1422 2188.168, 1422 2188.374 M 1721 2188.346 C 1721 2188.537, 1721.692 2190.079, 1722.537 2191.774 C 1730.143 2207.021, 1729.171 2251.618, 1720.923 2265.807 C 1719.865 2267.626, 1719 2269.339, 1719 2269.614 C 1719 2269.889, 1731.713 2269.976, 1747.250 2269.807 C 1778.083 2269.472, 1779.001 2269.304, 1780.974 2263.645 C 1781.903 2260.980, 1781.372 2253, 1780.266 2253 C 1780.003 2253, 1778.094 2254.341, 1776.024 2255.981 C 1769.643 2261.035, 1760.133 2264.998, 1754.385 2264.999 C 1745.181 2265.001, 1741.533 2259.918, 1739.952 2244.891 C 1739.453 2240.156, 1738.775 2235.577, 1738.444 2234.716 C 1738.066 2233.729, 1738.706 2232.583, 1740.173 2231.622 C 1742.312 2230.221, 1743.408 2230.338, 1753.502 2233.047 C 1759.551 2234.670, 1764.838 2235.999, 1765.250 2235.999 C 1765.662 2236, 1766 2232.175, 1766 2227.500 C 1766 2222.825, 1765.653 2219, 1765.228 2219 C 1764.803 2219, 1759.407 2220.763, 1753.236 2222.918 L 1742.016 2226.835 1739.951 2224.211 C 1738.737 2222.668, 1738.098 2220.745, 1738.399 2219.543 C 1738.681 2218.419, 1739.219 2213.675, 1739.594 2209 C 1739.969 2204.325, 1740.893 2199.276, 1741.648 2197.780 C 1744.074 2192.973, 1750.504 2190.710, 1757.500 2192.202 C 1761.259 2193.004, 1763.392 2194.392, 1768.103 2199.103 L 1774 2205 1774 2196.500 L 1774 2188 1747.500 2188 C 1732.925 2188, 1721 2188.156, 1721 2188.346 M 2505.462 2189.750 C 2511.153 2204.479, 2512.932 2219.504, 2511.269 2238.774 C 2510.291 2250.101, 2508.309 2258.705, 2504.465 2268.309 C 2503.775 2270.032, 2505.064 2270.103, 2531.849 2269.809 L 2559.958 2269.500 2562.729 2266.724 C 2565.134 2264.314, 2565.483 2263.218, 2565.368 2258.426 C 2565.240 2253.036, 2564.186 2250.209, 2563.267 2252.787 C 2562.194 2255.797, 2557.595 2260.023, 2552.780 2262.422 C 2546.696 2265.454, 2540.573 2265.755, 2533.563 2263.367 C 2529.498 2261.982, 2528.486 2261.092, 2526.900 2257.507 C 2525.872 2255.182, 2524.380 2249.055, 2523.584 2243.890 L 2522.138 2234.500 2524.499 2232.358 L 2526.859 2230.217 2537.680 2233.079 C 2543.631 2234.653, 2549.063 2235.954, 2549.750 2235.970 C 2550.654 2235.992, 2551 2233.649, 2551 2227.500 C 2551 2222.825, 2550.624 2219, 2550.165 2219 C 2549.706 2219, 2546.668 2219.854, 2543.415 2220.899 C 2540.162 2221.943, 2535.025 2223.545, 2532 2224.458 C 2528.975 2225.372, 2525.938 2226.355, 2525.250 2226.643 C 2524.282 2227.049, 2524 2223.754, 2524 2212.038 C 2524 2197.176, 2524.045 2196.864, 2526.536 2194.373 C 2528.753 2192.156, 2529.603 2191.925, 2533.286 2192.537 C 2535.604 2192.922, 2542.302 2194.944, 2548.171 2197.030 C 2554.041 2199.117, 2558.991 2200.678, 2559.171 2200.499 C 2559.352 2200.320, 2559.348 2197.434, 2559.161 2194.087 L 2558.822 2188 2531.804 2188 C 2506.482 2188, 2504.828 2188.110, 2505.462 2189.750 M 2755.202 2190.250 C 2756.959 2193.011, 2759.650 2201.666, 2760.996 2208.886 C 2763.363 2221.584, 2761.670 2251.578, 2758.140 2259.500 C 2755.822 2264.702, 2754.533 2267.564, 2754.199 2268.250 C 2753.998 2268.662, 2760.691 2269, 2769.072 2269 C 2783.743 2269, 2784.249 2268.932, 2782.663 2267.180 C 2780.477 2264.765, 2777.244 2255.271, 2775.451 2246 C 2772.457 2230.522, 2774.357 2207.460, 2779.798 2193.250 L 2781.808 2188 2767.789 2188 L 2753.770 2188 2755.202 2190.250 M 1603.074 2194.750 C 1601.236 2196.248, 1600.917 2197.582, 1600.862 2204 C 1600.662 2227.712, 1600.891 2228.333, 1609.844 2228.333 C 1616.547 2228.333, 1621.688 2225.821, 1624.063 2221.383 C 1626.274 2217.251, 1625.986 2204.226, 1623.605 2200.709 C 1619.147 2194.122, 1607.864 2190.847, 1603.074 2194.750 M 2371.073 2195.635 C 2369.121 2198.116, 2368.987 2199.679, 2368.784 2222.385 C 2368.665 2235.648, 2368.669 2248.525, 2368.791 2251 C 2369.244 2260.121, 2375.823 2264.505, 2387.978 2263.785 C 2405.569 2262.743, 2415.343 2253.225, 2418.141 2234.412 C 2420.154 2220.876, 2416.498 2209.223, 2407.860 2201.645 C 2400.966 2195.597, 2393.037 2193, 2381.467 2193 C 2373.668 2193, 2373.015 2193.165, 2371.073 2195.635 M 2006.237 2199.121 C 2003.885 2208.793, 2002.818 2222.249, 2003.151 2238.047 C 2003.548 2256.871, 2004.085 2258.472, 2011.225 2262.115 C 2014.836 2263.957, 2016.575 2264.184, 2023.690 2263.740 C 2036.332 2262.951, 2044.031 2258.217, 2048.537 2248.463 C 2052.194 2240.546, 2053.226 2234.877, 2052.840 2224.828 C 2052.549 2217.252, 2051.981 2214.462, 2049.818 2209.975 C 2046.572 2203.242, 2045.095 2201.848, 2037.532 2198.386 C 2032.425 2196.048, 2029.958 2195.614, 2019.460 2195.210 L 2007.302 2194.742 2006.237 2199.121 M 1878.596 2210.424 C 1877.718 2212.525, 1876.994 2214.977, 1876.987 2215.872 C 1876.980 2216.767, 1876.080 2220.353, 1874.987 2223.839 C 1873.894 2227.326, 1873 2230.588, 1873 2231.089 C 1873 2231.590, 1876.589 2232, 1880.975 2232 L 1888.950 2232 1888.301 2228.750 C 1887.944 2226.963, 1885.973 2221.249, 1883.922 2216.052 L 1880.192 2206.605 1878.596 2210.424" stroke="none" fill="#090606" fill-rule="evenodd"/><path d="M 1652 66.938 C 1629.213 73.926, 1596.058 108.634, 1558.328 165 C 1541.058 190.801, 1487.052 278.830, 1459.249 326.500 C 1433.285 371.015, 1384.084 460.804, 1345 535 C 1339.350 545.725, 1326.973 569.125, 1317.496 587 C 1285.344 647.641, 1267.713 682.280, 1193.811 830 L 1120.020 977.500 1120.010 958.358 C 1120.001 941.745, 1120.389 936.919, 1122.943 921.836 C 1125.899 904.380, 1133.367 877.177, 1138.616 864.744 C 1140.066 861.310, 1142.759 854.346, 1144.601 849.270 C 1146.443 844.193, 1151.470 833.168, 1155.773 824.770 C 1162.943 810.776, 1163.872 808.260, 1166.882 794.664 C 1170.680 777.513, 1181.383 745.085, 1189.215 727 C 1197.921 706.895, 1208.099 690.949, 1226.641 668.364 C 1260.459 627.172, 1268.756 615.365, 1274.826 599.798 C 1279.586 587.590, 1280.955 580.691, 1281.483 566.244 C 1281.732 559.441, 1282.677 552.565, 1284.059 547.500 C 1287.155 536.149, 1287.905 512.573, 1285.542 500.908 C 1282.126 484.050, 1269.731 453.866, 1260.599 440.168 C 1250.914 425.640, 1238.544 413.408, 1223.500 403.485 C 1219.100 400.582, 1195.925 388.450, 1172 376.525 C 1135.255 358.209, 1104.381 341.799, 1060.500 317.259 C 1049.721 311.231, 1031.782 299.149, 1023.637 292.430 C 1014.272 284.706, 1008.914 277.467, 1001.480 262.500 C 993.473 246.379, 989.770 235.048, 987.071 218.415 C 982.675 191.327, 981.804 187.170, 979.462 182.115 C 977.383 177.627, 976.324 176.580, 971.748 174.485 C 958.023 168.201, 883.397 162.835, 853.500 165.982 C 848.550 166.503, 835.500 167.652, 824.500 168.534 C 781.074 172.019, 777.300 174.379, 774.386 199.878 C 772.386 217.382, 771.380 222.877, 767.896 235.328 C 761.505 258.172, 752.366 275.489, 740.417 287.397 C 729.497 298.279, 691.169 322.279, 654.024 341.493 C 545.003 397.887, 532.928 404.356, 523.767 411.278 C 507.685 423.431, 486.348 456.358, 478.045 481.836 C 472.384 499.207, 470.751 509.782, 471.300 525.500 C 471.904 542.768, 473.729 549.629, 482.466 567.500 C 490.318 583.561, 496.134 591.974, 511.500 609.502 C 552.652 656.446, 574.919 697.670, 588.470 752 C 593.798 773.363, 596.107 779.718, 608.270 806.500 C 626.440 846.510, 630.667 860.641, 638.035 906 C 640.930 923.824, 643.225 956, 641.601 956 C 641.210 956, 639.770 953.637, 638.401 950.750 C 637.033 947.862, 635.520 944.825, 635.039 944 C 634.558 943.175, 620.680 915.275, 604.199 882 C 556.509 785.717, 547.196 766.945, 543.425 759.500 C 541.475 755.650, 538.759 750.250, 537.390 747.500 C 536.021 744.750, 533.608 740.025, 532.029 737 C 530.449 733.975, 528.224 729.475, 527.083 727 C 525.942 724.525, 523.750 720.250, 522.212 717.500 C 519.036 711.820, 518.412 710.632, 514.587 703 C 508.309 690.474, 503.405 681.074, 499.457 674 C 497.155 669.875, 494.926 665.375, 494.504 664 C 494.083 662.625, 492.950 660.375, 491.988 659 C 491.025 657.625, 486.981 650.200, 483 642.500 C 479.019 634.800, 474.916 627.306, 473.881 625.846 C 472.847 624.386, 472 622.714, 472 622.130 C 472 621.069, 465.108 607.944, 464.055 607 C 463.748 606.725, 462.896 605.150, 462.162 603.500 C 459.710 597.987, 453.727 586.518, 452.511 585 C 451.851 584.175, 450.525 581.475, 449.566 579 C 448.607 576.525, 447.457 574.050, 447.012 573.500 C 446.566 572.950, 443.393 567.100, 439.960 560.500 C 425.376 532.460, 420.475 523.053, 416.513 515.500 C 414.206 511.100, 409.254 501.650, 405.510 494.500 C 401.766 487.350, 397.928 480.375, 396.981 479 C 396.034 477.625, 393.466 473.125, 391.275 469 C 386.769 460.519, 379.382 447.469, 375.707 441.500 C 374.353 439.300, 371.357 433.970, 369.049 429.655 C 366.741 425.340, 363.376 419.490, 361.571 416.655 C 359.766 413.820, 357.322 409.475, 356.141 407 C 353.879 402.259, 350.995 397.303, 347.874 392.790 C 346.843 391.300, 346 389.578, 346 388.962 C 346 388.347, 343.300 383.450, 340 378.080 C 336.700 372.710, 333.981 367.907, 333.958 367.408 C 333.934 366.909, 331.908 363.350, 329.455 359.500 C 327.002 355.650, 323.872 350.250, 322.501 347.500 C 321.129 344.750, 318.434 340.025, 316.512 337 C 314.591 333.975, 312.115 329.700, 311.011 327.500 C 309.906 325.300, 307.660 321.475, 306.019 319 C 304.377 316.525, 302.249 312.925, 301.289 311 C 300.329 309.075, 297.388 304.246, 294.754 300.269 C 292.120 296.293, 289.574 292.010, 289.096 290.753 C 288.618 289.496, 285.701 284.693, 282.614 280.081 C 279.526 275.468, 277 271.125, 277 270.430 C 277 269.735, 276.660 269.017, 276.245 268.833 C 275.830 268.650, 273.513 265.350, 271.097 261.500 C 261.013 245.436, 255.174 236.517, 249.648 228.738 C 246.429 224.207, 243.547 219.825, 243.243 219 C 242.939 218.175, 241.262 215.700, 239.516 213.500 C 237.770 211.300, 233.902 205.953, 230.921 201.618 C 227.939 197.283, 223.901 191.433, 221.946 188.618 C 215.883 179.885, 206.080 166.707, 202.204 162.076 C 200.167 159.643, 197.761 156.493, 196.858 155.076 C 195.955 153.659, 191.313 148.675, 186.541 144 C 181.770 139.325, 173.296 129.425, 167.710 122 C 150.641 99.312, 128.324 78.351, 113.226 70.828 C 97.484 62.984, 84.575 67.717, 77.023 84.101 C 74.348 89.904, 73.648 92.842, 73.267 99.867 C 71.800 126.927, 89.770 189.897, 121.886 270.230 C 136.372 306.463, 164.064 371.293, 179.240 404.500 C 185.272 417.700, 195.508 440.425, 201.986 455 C 235.753 530.977, 366.511 793.265, 453.244 959 C 484.462 1018.654, 512.209 1071.112, 527.294 1099 C 546.985 1135.404, 558 1157.240, 558 1159.875 C 558 1161.536, 553.793 1169.377, 546.919 1180.526 C 522.428 1220.253, 508.376 1254.144, 500.588 1292.268 C 496.515 1312.210, 492.666 1349.845, 492.589 1370.500 C 492.508 1392.090, 496.349 1429.406, 501.011 1452.322 C 506.682 1480.198, 515.184 1515.492, 519.481 1529 C 521.843 1536.425, 525.891 1549.250, 528.475 1557.500 C 538.147 1588.371, 557.804 1634.404, 583.088 1685.392 C 604.020 1727.603, 604.239 1727.819, 636.500 1738.304 C 671.174 1749.573, 698.465 1756.848, 723.500 1761.496 C 740.118 1764.581, 747 1766.066, 747 1766.566 C 747 1767.261, 714.210 1839.548, 698.495 1873.500 C 689.839 1892.200, 677.242 1919.875, 670.502 1935 C 663.762 1950.125, 648.459 1983.650, 636.496 2009.500 C 612.464 2061.426, 599.788 2089.616, 583.105 2128.239 C 576.990 2142.395, 562.562 2175.309, 551.043 2201.380 C 525.457 2259.286, 520.905 2270.065, 516.952 2282.095 C 512.739 2294.915, 507.899 2315.418, 507.778 2320.952 C 507.537 2332.019, 516.353 2338.428, 526.492 2334.556 C 531.397 2332.683, 539.487 2324.567, 550.881 2310.091 C 554.522 2305.465, 560.352 2298.490, 563.837 2294.591 C 579.846 2276.679, 593.258 2256.154, 625.973 2199.500 C 629.467 2193.450, 633.677 2186.250, 635.330 2183.500 C 636.982 2180.750, 640.657 2174.450, 643.496 2169.500 C 659.986 2140.750, 677.059 2111.309, 701.199 2070 C 703.931 2065.325, 710.242 2054.300, 715.224 2045.500 C 720.206 2036.700, 725.968 2026.575, 728.030 2023 C 731.430 2017.103, 735.908 2009.148, 749.983 1984 C 767.799 1952.171, 781.502 1928.190, 804.840 1888 C 811.746 1876.107, 818.215 1864.686, 826.199 1850.291 C 829.618 1844.126, 832.488 1839.176, 832.576 1839.291 C 832.664 1839.406, 832.997 1874.430, 833.315 1917.123 C 833.863 1990.671, 833.995 1995.037, 835.842 2000.291 C 839.616 2011.028, 847.812 2020.159, 857.880 2024.845 C 862.757 2027.115, 865.109 2027.510, 875.668 2027.831 C 882.442 2028.037, 890.152 2027.704, 893.064 2027.080 C 900.054 2025.581, 907.652 2021.679, 912.338 2017.183 C 916.060 2013.610, 922 2003.468, 922 2000.684 C 922 1999.928, 922.965 1998.453, 924.145 1997.405 C 926.993 1994.876, 929.864 1988.279, 931.185 1981.230 C 931.839 1977.737, 932.500 1948.835, 932.879 1907.210 L 933.500 1838.921 958.685 1882.710 C 972.537 1906.795, 995.433 1946.975, 1009.565 1972 C 1023.698 1997.025, 1041.430 2028.075, 1048.970 2041 C 1056.510 2053.925, 1069.572 2076.875, 1077.996 2092 C 1086.419 2107.125, 1099.030 2129.175, 1106.019 2141 C 1113.009 2152.825, 1132.566 2186.575, 1149.481 2216 C 1180.709 2270.325, 1191.324 2287.465, 1207.793 2310.161 C 1217.292 2323.252, 1224.279 2330.979, 1229.489 2334.156 C 1235.230 2337.657, 1243.505 2335.988, 1247.861 2330.450 C 1251.244 2326.149, 1251.451 2320.584, 1248.681 2308.431 C 1243.746 2286.788, 1243.697 2286.392, 1245.579 2283.519 C 1248.019 2279.797, 1246.928 2272.016, 1242.003 2258 C 1239.780 2251.675, 1237.282 2244.066, 1236.452 2241.090 C 1235.622 2238.115, 1234.314 2234.290, 1233.546 2232.590 C 1230.122 2225.008, 1226 2214.422, 1226 2213.209 C 1226 2211.941, 1219.519 2197.434, 1216.455 2191.846 C 1215.655 2190.386, 1215 2188.602, 1215 2187.881 C 1215 2186.629, 1209.016 2173.541, 1204.934 2165.864 C 1203.870 2163.864, 1203 2161.489, 1203 2160.587 C 1203 2159.685, 1200.525 2153.940, 1197.500 2147.822 C 1194.475 2141.704, 1192 2136.100, 1192 2135.369 C 1192 2134.638, 1189.302 2128.518, 1186.004 2121.770 C 1182.706 2115.021, 1180.006 2108.894, 1180.004 2108.154 C 1180.002 2107.414, 1179.351 2105.614, 1178.557 2104.154 C 1174.906 2097.439, 1169 2084.830, 1169 2083.750 C 1169 2083.092, 1166.525 2077.520, 1163.500 2071.370 C 1160.475 2065.220, 1158 2059.729, 1158 2059.169 C 1158 2058.609, 1155.300 2052.531, 1152 2045.662 C 1148.700 2038.794, 1146 2032.796, 1146 2032.334 C 1146 2031.872, 1143.525 2026.443, 1140.500 2020.268 C 1137.475 2014.094, 1135 2008.609, 1135 2008.079 C 1135 2007.550, 1132.525 2001.949, 1129.500 1995.632 C 1126.475 1989.316, 1124 1983.714, 1124 1983.183 C 1124 1982.652, 1122.031 1978.231, 1119.625 1973.359 C 1117.219 1968.486, 1113.661 1960.658, 1111.718 1955.963 C 1109.775 1951.267, 1106.794 1944.687, 1105.094 1941.340 C 1103.393 1937.994, 1101.372 1933.510, 1100.604 1931.378 C 1099.835 1929.245, 1096.685 1922.266, 1093.603 1915.869 C 1090.521 1909.472, 1088 1903.877, 1088 1903.437 C 1088 1902.997, 1085.581 1897.656, 1082.623 1891.569 C 1079.666 1885.481, 1076.904 1879.375, 1076.484 1878 C 1076.064 1876.625, 1073.534 1871.195, 1070.860 1865.933 C 1068.187 1860.671, 1066 1855.841, 1066 1855.199 C 1066 1854.558, 1063.300 1848.690, 1060 1842.161 C 1056.700 1835.632, 1054 1829.743, 1054 1829.074 C 1054 1828.406, 1051.525 1823.098, 1048.500 1817.278 C 1045.475 1811.459, 1043 1806.196, 1043 1805.583 C 1043 1804.970, 1040.525 1799.553, 1037.500 1793.545 C 1034.475 1787.538, 1031.995 1781.920, 1031.988 1781.061 C 1031.981 1780.203, 1030.948 1777.700, 1029.693 1775.500 C 1028.437 1773.300, 1026.660 1769.624, 1025.745 1767.331 L 1024.081 1763.162 1028.291 1762.523 C 1049.634 1759.282, 1075.834 1752.412, 1108.697 1741.437 C 1124.206 1736.259, 1139.337 1730.941, 1142.322 1729.621 C 1151.506 1725.560, 1154.942 1721.503, 1166.945 1700.552 C 1176.875 1683.219, 1183.117 1670.186, 1204.222 1622.726 C 1209.030 1611.913, 1210.832 1608.829, 1212.604 1608.384 C 1215.579 1607.638, 1223.434 1609.973, 1240.500 1616.676 C 1290.418 1636.285, 1328.200 1666.373, 1357.689 1710 C 1381.349 1745.004, 1397.966 1777.197, 1430.469 1851 C 1438.341 1868.875, 1448.158 1891.150, 1452.284 1900.500 C 1494.072 1995.193, 1530.353 2054.271, 1572.993 2097.055 C 1607.224 2131.401, 1641.417 2149.441, 1681.029 2154.054 C 1694.067 2155.572, 1720.884 2154.768, 1734 2152.466 C 1756.668 2148.487, 1780.612 2140.775, 1804.397 2129.793 C 1830.050 2117.948, 1871.479 2094.217, 1872.584 2090.734 C 1873.461 2087.973, 1870.332 2085.401, 1865.002 2084.500 C 1862.807 2084.129, 1860.798 2083.482, 1860.537 2083.061 C 1860.090 2082.337, 1864.502 2079.250, 1873.500 2073.991 C 1875.700 2072.705, 1877.634 2071.559, 1877.799 2071.444 C 1877.963 2071.330, 1877.819 2070.126, 1877.478 2068.770 C 1877.107 2067.290, 1875.505 2065.658, 1873.475 2064.689 C 1871.613 2063.802, 1869.417 2061.773, 1868.594 2060.182 C 1867.239 2057.562, 1859.281 2053, 1856.065 2053 C 1854.494 2053, 1854.767 2051.913, 1856.750 2050.274 C 1857.713 2049.479, 1856.700 2049.852, 1854.500 2051.103 C 1848.122 2054.731, 1846 2056.182, 1846 2056.915 C 1846 2057.292, 1848.614 2058.140, 1851.808 2058.799 C 1855.002 2059.459, 1861.752 2061.613, 1866.808 2063.585 C 1877.183 2067.633, 1878.434 2069.601, 1872.750 2072.936 C 1870.963 2073.985, 1867.333 2076.116, 1864.684 2077.672 C 1862.035 2079.227, 1857.985 2081.664, 1855.684 2083.087 C 1847.892 2087.904, 1826.556 2099.665, 1815.500 2105.237 C 1785.190 2120.512, 1755.029 2130.673, 1728.188 2134.650 C 1713.250 2136.864, 1683.567 2136.859, 1670.596 2134.641 C 1640.619 2129.515, 1613.139 2116.508, 1586.796 2094.979 C 1573.225 2083.887, 1553.742 2062.932, 1539.684 2044.307 C 1531.099 2032.932, 1511 2002.838, 1511 2001.358 C 1511 2001.036, 1509.016 1997.561, 1506.590 1993.636 C 1498.178 1980.023, 1471.540 1927.729, 1464.512 1911.029 C 1463.014 1907.469, 1460.520 1901.844, 1458.971 1898.529 C 1454.980 1889.989, 1441 1858.081, 1441 1857.512 C 1441 1857.252, 1439.150 1853.092, 1436.889 1848.269 C 1434.628 1843.446, 1431.979 1837.475, 1431.001 1835 C 1430.024 1832.525, 1426.923 1825.612, 1424.112 1819.637 C 1421.300 1813.663, 1419.001 1808.488, 1419.003 1808.137 C 1419.011 1806.622, 1403.333 1774.347, 1392.949 1754.500 C 1382.990 1735.466, 1381.533 1732.801, 1378.185 1727.500 C 1376.448 1724.750, 1374.466 1721.375, 1373.780 1720 C 1369.268 1710.962, 1350.147 1683.684, 1339.368 1670.908 C 1320.669 1648.744, 1292.301 1626.734, 1264.240 1612.617 C 1254.999 1607.968, 1235.946 1600.135, 1225.127 1596.538 C 1220.522 1595.007, 1215.572 1593.137, 1214.127 1592.383 C 1212.682 1591.629, 1210.300 1591.010, 1208.833 1591.006 C 1204.711 1590.997, 1197.319 1587.416, 1195.412 1584.506 C 1193.772 1582.003, 1193.785 1581.764, 1195.691 1579.193 C 1196.893 1577.571, 1200.001 1575.668, 1203.504 1574.408 C 1206.703 1573.258, 1208.911 1572.080, 1208.410 1571.792 C 1207.910 1571.504, 1204.534 1570.295, 1200.910 1569.106 C 1196.812 1567.761, 1193.220 1565.792, 1191.410 1563.897 L 1188.500 1560.851 1191.724 1557.963 C 1194.139 1555.799, 1199.785 1553.539, 1214.224 1548.956 C 1224.826 1545.591, 1235.300 1542.205, 1237.500 1541.431 C 1240.993 1540.202, 1241.088 1540.096, 1238.250 1540.591 C 1236.463 1540.903, 1235 1540.988, 1235 1540.780 C 1235 1540.571, 1237.275 1533.223, 1240.055 1524.450 C 1251.899 1487.079, 1256.361 1464.704, 1262.581 1411.500 C 1263.995 1399.400, 1265.600 1385.675, 1266.148 1381 C 1268.353 1362.166, 1262.447 1310.959, 1254.348 1278.689 C 1245.984 1245.364, 1230.604 1210.440, 1209.858 1177.666 C 1206.086 1171.707, 1203 1166.174, 1203 1165.371 C 1203 1164.567, 1204.150 1162.759, 1205.555 1161.354 C 1208.525 1158.384, 1209.386 1158.455, 1225.690 1163.017 C 1250.006 1169.822, 1267.753 1171.612, 1329.500 1173.487 C 1381.361 1175.062, 1400.209 1176.127, 1419.204 1178.557 C 1467.015 1184.672, 1509.559 1199.180, 1535 1218.044 C 1558.831 1235.715, 1571.853 1262.771, 1573.723 1298.500 L 1574.403 1311.500 1575.708 1305 C 1576.426 1301.425, 1577.052 1292.650, 1577.099 1285.500 C 1577.177 1273.579, 1576.933 1271.740, 1574.153 1263.346 C 1570.850 1253.370, 1565.479 1242.068, 1560.683 1235 C 1556.212 1228.410, 1544.460 1216.529, 1537 1211.056 C 1510.155 1191.363, 1465.053 1176.150, 1417 1170.582 C 1395.432 1168.083, 1378.156 1167.116, 1335.500 1166.023 C 1292.448 1164.920, 1272.183 1163.740, 1256.678 1161.436 C 1235.049 1158.222, 1214.831 1152.680, 1203.717 1146.920 C 1200.536 1145.272, 1197.542 1144.165, 1197.064 1144.460 C 1196.586 1144.756, 1190.188 1141.955, 1182.847 1138.237 C 1155.043 1124.153, 1132.876 1107.257, 1111.284 1083.694 C 1095.322 1066.273, 1078.518 1041.967, 1073.376 1028.861 C 1070.692 1022.020, 1070.654 1021.669, 1072.281 1018.833 C 1073.924 1015.970, 1073.874 1015.649, 1070.342 1006.422 C 1068.348 1001.212, 1066.988 996.679, 1067.320 996.347 C 1067.652 996.015, 1071.428 994.904, 1075.712 993.879 C 1082.740 992.198, 1088.527 992.001, 1135 991.867 C 1163.325 991.786, 1210.972 991.445, 1240.883 991.109 L 1295.267 990.500 1302.710 976.500 C 1306.803 968.800, 1312.310 958.450, 1314.947 953.500 C 1325.366 933.942, 1342.891 899.950, 1367.016 852.500 C 1377.083 832.700, 1393.044 801.650, 1402.486 783.500 C 1418.587 752.549, 1447.668 694.418, 1471.024 646.500 C 1476.653 634.950, 1486.650 614.475, 1493.239 601 C 1524.824 536.406, 1537.238 509.962, 1562.481 453.500 C 1566.170 445.250, 1571.581 433.325, 1574.506 427 C 1584.673 405.013, 1595.715 379.440, 1602.139 363 C 1603.750 358.875, 1606.830 351.225, 1608.981 346 C 1612.877 336.539, 1621.239 315.135, 1631.446 288.500 C 1636.494 275.326, 1640.785 263.638, 1656.961 219 C 1670.394 181.931, 1678.924 152.499, 1683.011 129.120 C 1685.370 115.625, 1685.687 94.161, 1683.641 86.500 C 1682.019 80.429, 1678.872 74.096, 1676.338 71.805 C 1670.982 66.961, 1659.447 64.655, 1652 66.938 M 190.603 245.750 C 191.431 248.363, 194.518 258.600, 197.461 268.500 C 203.206 287.823, 210.332 307.768, 216.909 322.929 C 219.159 328.116, 221 332.761, 221 333.252 C 221 333.743, 223.496 339.400, 226.546 345.823 C 235.078 363.785, 236.487 366.617, 243.296 379.500 C 246.785 386.100, 252.731 397.350, 256.510 404.500 C 260.289 411.650, 264.879 420.425, 266.710 424 C 268.542 427.575, 271.364 432.525, 272.983 435 C 274.601 437.475, 276.553 440.850, 277.321 442.500 C 278.751 445.573, 286.035 456.835, 294.972 469.789 C 297.737 473.797, 300 477.455, 300 477.916 C 300 478.378, 300.703 479.339, 301.563 480.052 C 302.937 481.193, 303.046 480.996, 302.468 478.425 C 298.053 458.803, 283.333 418.083, 268.513 384.500 C 260.609 366.588, 241.930 328.754, 231.486 309.500 C 214.784 278.712, 191.917 241, 189.949 241 C 189.480 241, 189.774 243.137, 190.603 245.750 M 1584.385 251.301 C 1572.011 264.274, 1542.325 306.291, 1528.783 330 C 1518.215 348.502, 1494.932 393.911, 1485.455 414.500 C 1472.277 443.132, 1454.976 486.177, 1455.033 490.189 C 1455.062 492.153, 1455.969 491.523, 1461.075 486 C 1479.017 466.591, 1499.129 436.961, 1525.255 391.449 C 1541.785 362.652, 1567.607 310.534, 1580.403 280.141 C 1586.639 265.330, 1595.248 241.914, 1594.670 241.336 C 1594.450 241.117, 1589.822 245.601, 1584.385 251.301 M 1311.750 991.747 C 1319.037 991.918, 1330.963 991.918, 1338.250 991.747 C 1345.537 991.577, 1339.575 991.437, 1325 991.437 C 1310.425 991.437, 1304.463 991.577, 1311.750 991.747 M 1636 1076.289 C 1636 1076.527, 1641.287 1080.932, 1647.750 1086.078 C 1663.889 1098.930, 1686.660 1121.817, 1701.184 1139.785 C 1702.110 1140.931, 1703.667 1143.135, 1704.644 1144.684 C 1705.621 1146.233, 1708.306 1149.996, 1710.611 1153.046 C 1712.916 1156.096, 1715.516 1160.146, 1716.388 1162.046 C 1717.259 1163.946, 1720.224 1169.100, 1722.975 1173.500 C 1725.726 1177.900, 1727.982 1181.928, 1727.988 1182.452 C 1727.995 1182.975, 1730.268 1188.069, 1733.039 1193.771 C 1735.810 1199.474, 1738.350 1205.570, 1738.682 1207.320 C 1739.014 1209.069, 1739.847 1211.625, 1740.533 1213 C 1742.814 1217.570, 1750 1240.251, 1750.006 1242.896 C 1750.012 1245.956, 1751.951 1253.383, 1752.579 1252.755 C 1753.994 1251.340, 1745.711 1219.190, 1742.981 1215.500 C 1742.574 1214.950, 1741.508 1211.941, 1740.611 1208.813 C 1738.997 1203.184, 1736.234 1196.852, 1731.464 1187.853 C 1730.109 1185.297, 1729 1182.695, 1729 1182.072 C 1729 1181.449, 1727.088 1177.823, 1724.750 1174.016 C 1722.412 1170.208, 1719.375 1165.077, 1718 1162.614 C 1714.190 1155.789, 1704.669 1142.131, 1699.564 1136.168 C 1697.054 1133.236, 1695 1130.533, 1695 1130.163 C 1695 1128.899, 1669.492 1103.523, 1659.912 1095.256 C 1649.687 1086.433, 1636 1075.576, 1636 1076.289 M 3168.683 1207.007 C 3173.231 1212.200, 3173.247 1212.474, 3172.005 1266 C 3170.412 1334.691, 3171.071 1763.878, 3172.778 1769 L 3173.945 1772.500 3173.321 1769 C 3172.071 1761.987, 3171.794 1333.471, 3173.001 1273.420 C 3174.270 1210.305, 3174.315 1211.036, 3168.888 1206.507 L 3166.500 1204.514 3168.683 1207.007 M 1753.034 1255 C 1753.019 1255.825, 1753.652 1260.325, 1754.440 1265 C 1755.229 1269.675, 1756.627 1281.225, 1757.547 1290.667 C 1759.100 1306.596, 1759.103 1309.084, 1757.600 1325.167 C 1756.121 1340.989, 1755.240 1346.863, 1750.427 1373 C 1749.566 1377.675, 1746 1390.050, 1742.502 1400.500 C 1726.711 1447.677, 1702.934 1485.363, 1666.380 1521.152 C 1647.830 1539.315, 1631.447 1552.435, 1607 1568.706 C 1581.825 1585.461, 1563.848 1595.061, 1534.007 1607.685 C 1524.387 1611.755, 1516.122 1615.478, 1515.642 1615.958 C 1514.879 1616.721, 1519.240 1622.391, 1533.816 1639.587 C 1535.641 1641.739, 1534.628 1640.160, 1531.566 1636.079 C 1528.505 1631.997, 1526 1628.359, 1526 1627.993 C 1526 1627.627, 1531.737 1624.933, 1538.750 1622.006 C 1568.869 1609.434, 1585.008 1600.791, 1612.500 1582.509 C 1635.094 1567.484, 1653.374 1552.652, 1671.035 1535.015 C 1705.333 1500.764, 1727.452 1465.479, 1742.642 1420.781 C 1759.402 1371.463, 1764.112 1316.270, 1755.978 1264.500 C 1754.774 1256.832, 1753.098 1251.428, 1753.034 1255 M 3022.829 1278.750 C 3023.323 1279.713, 3023.975 1283.030, 3024.278 1286.122 C 3025.275 1296.297, 3028.037 1299.978, 3040.941 1308.331 C 3044.484 1310.624, 3048.759 1314.229, 3050.441 1316.343 L 3053.500 1320.185 3054.016 1543.343 L 3054.532 1766.500 3054.516 1538.500 L 3054.500 1310.500 3052.321 1305.783 C 3049.115 1298.844, 3041.699 1291.476, 3033.676 1287.261 C 3029.023 1284.816, 3026.041 1282.489, 3024.746 1280.295 C 3022.726 1276.871, 3021.254 1275.685, 3022.829 1278.750 M 1555.685 1354.890 C 1546.162 1371.280, 1530.656 1389.554, 1510.963 1407.595 C 1506.818 1411.393, 1504.568 1413.580, 1505.963 1412.456 C 1526.170 1396.171, 1547.616 1371.591, 1557.831 1353.011 C 1562.643 1344.258, 1561.055 1345.649, 1555.685 1354.890 M 1878.010 1467.061 C 1867.708 1468.343, 1866.758 1469.062, 1876.500 1468.204 C 1886.610 1467.314, 1921.097 1467.288, 1931 1468.163 C 1936.619 1468.659, 1937.622 1468.583, 1935 1467.861 C 1930.153 1466.527, 1887.158 1465.923, 1878.010 1467.061 M 2765.112 1467.109 C 2759.948 1467.568, 2755.448 1468.232, 2755.112 1468.584 C 2754.775 1468.937, 2757.425 1468.891, 2761 1468.483 C 2764.575 1468.076, 2774.925 1467.421, 2784 1467.028 L 2800.500 1466.315 2787.500 1466.295 C 2780.350 1466.284, 2770.275 1466.650, 2765.112 1467.109 M 2133.250 1478.031 C 2130.118 1479.290, 2130.413 1480.174, 2133.565 1478.975 C 2135.172 1478.364, 2175.032 1478.001, 2240.315 1478.004 C 2342.511 1478.007, 2344.562 1478.045, 2347.759 1479.995 C 2349.552 1481.088, 2351.912 1483.448, 2353.005 1485.241 C 2354.098 1487.033, 2354.994 1487.972, 2354.996 1487.327 C 2355.002 1485.504, 2350.075 1480.090, 2346.931 1478.464 C 2344.496 1477.205, 2329.504 1477.009, 2239.800 1477.063 C 2180.109 1477.100, 2134.538 1477.514, 2133.250 1478.031 M 2412.500 1477.713 C 2411.400 1477.978, 2410.050 1478.667, 2409.500 1479.244 C 2408.806 1479.973, 2409.111 1480.020, 2410.500 1479.397 C 2412.693 1478.413, 2556.513 1477.558, 2561.721 1478.498 C 2563.492 1478.818, 2566.417 1480.283, 2568.221 1481.755 C 2571.113 1484.114, 2571.264 1484.152, 2569.500 1482.077 C 2565.106 1476.908, 2566.487 1476.991, 2487.782 1477.116 C 2447.477 1477.180, 2413.600 1477.448, 2412.500 1477.713 M 2569.803 1505.021 C 2567.625 1508.815, 2563.241 1510.530, 2553.666 1511.332 C 2543.051 1512.222, 2534.817 1514.480, 2526.731 1518.719 C 2519.813 1522.346, 2508.016 1532.353, 2505.757 1536.512 C 2505.066 1537.785, 2502.137 1542.640, 2499.250 1547.302 C 2496.363 1551.964, 2494 1556.262, 2494 1556.853 C 2494 1557.445, 2491.525 1562.461, 2488.500 1568 C 2485.475 1573.539, 2483 1578.492, 2483 1579.005 C 2483 1579.519, 2480.300 1584.844, 2477 1590.839 C 2473.700 1596.834, 2471 1602.382, 2471 1603.169 C 2471 1603.956, 2470.581 1605.027, 2470.069 1605.550 C 2469.301 1606.334, 2459.885 1624.393, 2450.804 1642.500 C 2449.701 1644.700, 2448.104 1647.850, 2447.255 1649.500 C 2428.635 1685.716, 2386.908 1768.892, 2373.008 1797.500 C 2368.999 1805.750, 2364.342 1815.200, 2362.657 1818.500 C 2360.973 1821.800, 2359.124 1825.612, 2358.548 1826.970 C 2357.971 1828.329, 2354.985 1834.629, 2351.911 1840.970 C 2348.837 1847.312, 2343.731 1857.900, 2340.564 1864.500 C 2337.397 1871.100, 2331.869 1882.575, 2328.278 1890 C 2324.688 1897.425, 2319.383 1908.450, 2316.491 1914.500 C 2310.753 1926.501, 2305.882 1936.578, 2288.938 1971.500 C 2282.800 1984.150, 2277.350 1995.625, 2276.827 1997 C 2276.304 1998.375, 2273.092 2003.983, 2269.688 2009.463 C 2262.503 2021.032, 2250.350 2033.818, 2241.722 2038.884 C 2224.768 2048.841, 2198.393 2052.222, 2178.809 2046.949 C 2166.375 2043.600, 2154.752 2033.888, 2150.964 2023.681 C 2148.379 2016.716, 2147.578 2016.641, 2149.420 2023.536 C 2150.150 2026.266, 2151.315 2030.975, 2152.009 2034 C 2154.969 2046.891, 2162.589 2056.526, 2174.146 2061.992 C 2182.587 2065.983, 2192.002 2067.348, 2206.957 2066.745 C 2227.673 2065.911, 2241.734 2060.058, 2255.590 2046.500 C 2268.816 2033.560, 2268.821 2033.551, 2323.475 1919.500 C 2370.641 1821.076, 2409.632 1742.203, 2452.747 1658 C 2459.365 1645.075, 2472.613 1618.972, 2482.187 1599.994 C 2501.209 1562.288, 2505.396 1555.357, 2514.335 1546.785 C 2524.629 1536.913, 2537.360 1531.479, 2555.753 1529.107 C 2565.099 1527.901, 2568.670 1526.035, 2570.636 1521.328 C 2572.187 1517.617, 2572.420 1510.213, 2571.054 1508.054 C 2570.491 1507.163, 2570.528 1505.883, 2571.151 1504.718 C 2572.811 1501.616, 2571.601 1501.888, 2569.803 1505.021 M 2126.004 1503.300 C 2126.002 1503.739, 2126.767 1505.539, 2127.704 1507.300 C 2128.641 1509.060, 2129.469 1512.525, 2129.544 1515 C 2129.701 1520.206, 2132.073 1525.352, 2135.271 1527.429 C 2136.497 1528.225, 2141.859 1529.762, 2147.186 1530.845 C 2167.508 1534.976, 2180.361 1546.326, 2189.788 1568.465 C 2193.905 1578.133, 2206.817 1609.806, 2212.020 1623 C 2214.080 1628.225, 2217.583 1637, 2219.803 1642.500 C 2222.023 1648, 2226.392 1659.025, 2229.511 1667 C 2232.630 1674.975, 2237.589 1687.575, 2240.531 1695 C 2243.474 1702.425, 2248.630 1715.700, 2251.990 1724.500 C 2255.349 1733.300, 2260.313 1746.125, 2263.020 1753 C 2269.471 1769.385, 2279.364 1795.760, 2290.213 1825.500 C 2293.850 1835.470, 2294.225 1837.390, 2294.214 1846 C 2294.206 1852.222, 2293.646 1857.020, 2292.591 1859.906 C 2291.704 1862.329, 2291.163 1864.496, 2291.387 1864.721 C 2291.612 1864.946, 2292.618 1862.738, 2293.623 1859.815 C 2294.990 1855.841, 2295.429 1851.725, 2295.364 1843.500 C 2295.283 1833.158, 2294.991 1831.632, 2290.481 1818 C 2287.843 1810.025, 2284.127 1799.675, 2282.223 1795 C 2280.320 1790.325, 2278.191 1784.475, 2277.494 1782 C 2276.796 1779.525, 2273.924 1771.902, 2271.113 1765.060 C 2268.301 1758.218, 2266 1752.051, 2266 1751.355 C 2266 1750.659, 2264.024 1745.457, 2261.610 1739.795 C 2259.195 1734.133, 2255.869 1725.675, 2254.218 1721 C 2252.566 1716.325, 2249.531 1708.450, 2247.472 1703.500 C 2245.413 1698.550, 2242.701 1691.575, 2241.446 1688 C 2240.191 1684.425, 2237.513 1677.675, 2235.496 1673 C 2233.479 1668.325, 2231.368 1662.925, 2230.805 1661 C 2230.241 1659.075, 2227.751 1652.775, 2225.270 1647 C 2222.789 1641.225, 2220.313 1634.925, 2219.767 1633 C 2219.221 1631.075, 2216.400 1623.875, 2213.498 1617 C 2210.596 1610.125, 2207.893 1603.375, 2207.492 1602 C 2206.764 1599.507, 2205.841 1597.331, 2200.271 1584.976 C 2198.654 1581.387, 2196.996 1577.112, 2196.587 1575.476 C 2195.940 1572.885, 2193.103 1565.928, 2188.440 1555.500 C 2187.702 1553.850, 2186.239 1550.188, 2185.188 1547.362 C 2182.559 1540.292, 2174.550 1528.635, 2169.060 1523.888 C 2161.960 1517.748, 2153.484 1514.014, 2143.140 1512.469 C 2132.582 1510.891, 2130.579 1509.997, 2127.950 1505.686 C 2126.882 1503.934, 2126.006 1502.860, 2126.004 1503.300 M 2403 1503.461 C 2403 1503.863, 2403.843 1505.386, 2404.873 1506.846 C 2406.053 1508.518, 2406.913 1511.866, 2407.197 1515.895 C 2407.605 1521.675, 2407.989 1522.601, 2411.182 1525.528 C 2413.986 1528.097, 2416.657 1529.220, 2424.108 1530.960 C 2429.274 1532.167, 2435.356 1533.969, 2437.625 1534.965 L 2441.750 1536.777 2442.875 1533.023 C 2446.317 1521.535, 2442.564 1517.603, 2424.411 1513.674 C 2412.244 1511.041, 2408.159 1509.289, 2405.088 1505.385 C 2403.940 1503.925, 2403 1503.059, 2403 1503.461 M 2352.002 1505.997 C 2350.406 1508.978, 2344.514 1511.549, 2335 1513.417 C 2321.857 1515.996, 2311.333 1519.761, 2309.011 1522.713 C 2306.718 1525.628, 2306.349 1531.776, 2308.148 1537.101 C 2308.780 1538.970, 2309.378 1540.611, 2309.478 1540.746 C 2309.578 1540.882, 2312.098 1539.687, 2315.079 1538.091 C 2318.061 1536.496, 2324.775 1534.206, 2330 1533.002 C 2335.225 1531.798, 2341.075 1530.350, 2343 1529.783 C 2351.494 1527.282, 2355.909 1520.712, 2354.523 1512.633 C 2354.133 1510.360, 2353.808 1507.487, 2353.801 1506.250 C 2353.786 1503.478, 2353.380 1503.421, 2352.002 1505.997 M 1886.159 1510.017 C 1883.772 1510.517, 1878.730 1512.350, 1874.955 1514.090 C 1853.714 1523.881, 1834.948 1559.653, 1829.540 1600.661 C 1826.847 1621.086, 1825.861 1640.443, 1826.825 1654 L 1827.713 1666.500 1827.856 1648.716 C 1828.153 1612.008, 1836.463 1579.437, 1851.366 1556.574 C 1864.594 1536.281, 1877.525 1528, 1895.984 1528 C 1914.690 1528, 1930.175 1537.684, 1943.153 1557.500 C 1947.983 1564.873, 1955.686 1581.181, 1956.675 1586.123 C 1956.996 1587.728, 1957.716 1589.324, 1958.275 1589.670 C 1958.933 1590.077, 1959.037 1589.284, 1958.570 1587.424 C 1958.173 1585.843, 1957.430 1582.288, 1956.918 1579.525 C 1954.917 1568.715, 1946.447 1549.305, 1938.283 1536.817 C 1929.388 1523.211, 1919.744 1515.497, 1906.152 1511.115 C 1901.232 1509.529, 1891.132 1508.974, 1886.159 1510.017 M 2731 1514.393 C 2719.321 1516.994, 2711.116 1523.109, 2704.340 1534.263 C 2700.475 1540.625, 2699.009 1545.036, 2695.450 1561 C 2692.728 1573.211, 2688.372 1583.426, 2684.340 1587.057 C 2670.464 1599.551, 2643.687 1609.875, 2620.802 1611.555 C 2609.878 1612.356, 2605.635 1611.374, 2600.486 1606.853 L 2597.143 1603.918 2598.051 1606.709 C 2598.550 1608.244, 2599.216 1611.605, 2599.530 1614.177 C 2600.219 1619.819, 2603.312 1624.694, 2607.908 1627.378 C 2617.080 1632.735, 2645.999 1627.550, 2667.678 1616.662 C 2685.652 1607.635, 2690.967 1600.865, 2695.072 1581.776 C 2699.367 1561.798, 2705.139 1549.475, 2713.735 1541.927 C 2715.754 1540.155, 2720.352 1537.309, 2723.953 1535.603 C 2729.985 1532.744, 2731.328 1532.500, 2741.016 1532.500 C 2750.881 1532.500, 2751.944 1532.703, 2758.210 1535.785 C 2769.711 1541.443, 2779.495 1553.140, 2784.160 1566.810 C 2786.209 1572.816, 2786.445 1575.392, 2786.466 1592 C 2786.478 1602.175, 2786.147 1611.850, 2785.730 1613.500 C 2785.054 1616.176, 2785.109 1616.284, 2786.236 1614.500 C 2788.366 1611.129, 2787.958 1574.276, 2785.694 1565.500 C 2782.403 1552.749, 2777.966 1540.337, 2775.107 1535.889 C 2767.621 1524.240, 2757.196 1516.382, 2746.201 1514.100 C 2739.819 1512.775, 2738.114 1512.808, 2731 1514.393 M 2894.590 1546.500 C 2895.843 1556.858, 2896.128 1596.258, 2895.131 1621.500 C 2893.530 1662.062, 2892.626 1707.604, 2893.437 1706.849 C 2894.200 1706.138, 2895.726 1651.423, 2896.570 1594.500 C 2897.008 1565.029, 2896.833 1557.049, 2895.605 1550.500 C 2894.781 1546.100, 2894.324 1544.300, 2894.590 1546.500 M 1966.672 1648 C 1966.960 1655.425, 1967.555 1665.775, 1967.993 1671 C 1968.715 1679.599, 1967.920 1690.637, 1965.510 1705.500 C 1965.052 1708.324, 1965.079 1708.353, 1965.977 1706 C 1966.502 1704.625, 1967.566 1698.531, 1968.341 1692.457 C 1969.547 1683.015, 1969.554 1678.301, 1968.385 1659.957 C 1966.782 1634.784, 1965.925 1628.804, 1966.672 1648 M 2094.696 1677.382 C 2093.883 1692.549, 2090.962 1706.455, 2084.905 1723.988 C 2062.017 1790.242, 2007.996 1831.292, 1930 1841.699 C 1910.955 1844.240, 1870.961 1844.232, 1855.500 1841.685 C 1818.023 1835.510, 1787.870 1822.463, 1760.500 1800.577 C 1740.847 1784.863, 1723.817 1762.627, 1714.487 1740.500 C 1709.477 1728.617, 1706.080 1718.689, 1705.934 1715.500 C 1705.882 1714.375, 1705.617 1714.060, 1705.327 1714.781 C 1704.400 1717.088, 1712.055 1744.235, 1717.091 1756.500 C 1732.440 1793.880, 1760.554 1822.700, 1800.500 1842.003 C 1830.934 1856.710, 1862.905 1862.912, 1902 1861.691 C 1931.408 1860.772, 1953.098 1857.276, 1975.350 1849.867 C 2020.536 1834.823, 2054.662 1806.416, 2074.903 1767 C 2084.766 1747.794, 2091.990 1724.419, 2093.911 1705.500 C 2095.154 1693.253, 2096.449 1666, 2095.787 1666 C 2095.523 1666, 2095.031 1671.122, 2094.696 1677.382 M 2772.430 1675.046 C 2730.777 1680.487, 2706.658 1702.046, 2707.118 1733.426 C 2707.183 1737.867, 2707.614 1742.850, 2708.074 1744.500 C 2708.898 1747.451, 2708.906 1747.442, 2708.562 1744 C 2708.154 1739.911, 2711.246 1729.905, 2714.266 1725.540 C 2722.735 1713.302, 2733.077 1705.044, 2746.338 1699.930 C 2755.030 1696.578, 2771.472 1693, 2778.183 1693 L 2782.295 1693 2781.638 1709.250 C 2781.277 1718.188, 2780.701 1732.025, 2780.358 1740 C 2780.016 1747.975, 2779.971 1754.275, 2780.259 1754 C 2780.548 1753.725, 2781.283 1741.800, 2781.893 1727.500 C 2782.503 1713.200, 2783.284 1695.313, 2783.629 1687.750 L 2784.256 1674 2781.378 1674.127 C 2779.795 1674.197, 2775.769 1674.610, 2772.430 1675.046 M 2593.299 1734.632 C 2592.019 1739.227, 2592.455 1770.120, 2593.840 1773 C 2595.031 1775.475, 2595.037 1775.470, 2594.502 1772.500 C 2593.317 1765.932, 2592.870 1744.152, 2593.804 1738.500 C 2594.870 1732.046, 2594.598 1729.965, 2593.299 1734.632 M 2904.983 1773.591 C 2908.368 1779.038, 2921.321 1785, 2929.771 1785 C 2933.510 1785, 2947.375 1782.042, 2946.717 1781.384 C 2946.485 1781.151, 2943.190 1781.689, 2939.397 1782.579 C 2927.099 1785.464, 2916.469 1783.023, 2907.969 1775.363 C 2905.612 1773.238, 2904.268 1772.441, 2904.983 1773.591 M 2973.095 1784.843 C 2974.576 1789.090, 2973.774 1796.106, 2971.462 1799.131 C 2965.234 1807.282, 2943.021 1823.366, 2927.500 1830.962 C 2907.414 1840.793, 2890.594 1844.558, 2870.500 1843.724 C 2847.176 1842.755, 2834.377 1838.325, 2813.500 1823.993 C 2786.666 1805.571, 2784.756 1804.831, 2776.145 1809.517 C 2773.363 1811.032, 2770.201 1813.096, 2769.118 1814.105 C 2765.339 1817.625, 2748.438 1828.215, 2740.500 1832.035 C 2722.023 1840.928, 2705.456 1844.487, 2686 1843.742 C 2645.823 1842.203, 2615.899 1823.609, 2600.376 1790.540 C 2598.559 1786.668, 2597.056 1783.770, 2597.036 1784.101 C 2596.899 1786.397, 2602.569 1806.327, 2604.553 1810.520 C 2615.737 1834.161, 2634.601 1849.792, 2661.112 1857.388 C 2696.356 1867.485, 2731.518 1860.340, 2764.500 1836.379 C 2775.585 1828.326, 2780.262 1826.050, 2785.782 1826.022 C 2791.866 1825.991, 2794.863 1827.499, 2812.141 1839.281 C 2830.876 1852.058, 2837.588 1855.503, 2849.749 1858.588 C 2867.903 1863.193, 2888.980 1862.786, 2907.679 1857.467 C 2932.102 1850.521, 2969.685 1825.457, 2973.183 1813.783 C 2974.094 1810.741, 2973.983 1809.243, 2972.569 1805.541 C 2971.013 1801.466, 2970.994 1800.863, 2972.381 1799.476 C 2975.349 1796.508, 2975.764 1785.364, 2973.009 1782.609 C 2972.311 1781.911, 2972.341 1782.679, 2973.095 1784.843 M 1888 1798.720 C 1890.815 1800.127, 1894.045 1800.459, 1904.500 1800.416 C 1912.514 1800.383, 1918.459 1799.898, 1920 1799.153 L 1922.500 1797.944 1920 1798.514 C 1910.886 1800.593, 1895.479 1800.149, 1886.498 1797.549 C 1885.399 1797.231, 1886.075 1797.758, 1888 1798.720 M 3223.347 1828.537 C 3221.651 1832.958, 3223.037 1832.901, 3114.117 1833.056 C 3021.043 1833.189, 3010.720 1833.046, 3008.514 1831.601 C 3005.579 1829.678, 3004.606 1829.558, 3005.664 1831.250 C 3006.094 1831.938, 3006.523 1834.917, 3006.618 1837.871 C 3006.805 1843.697, 3008.927 1847.587, 3013.096 1849.743 C 3014.975 1850.714, 3037.720 1850.933, 3117.227 1850.743 L 3218.955 1850.500 3221.727 1847.727 C 3224.334 1845.121, 3224.504 1844.417, 3224.561 1835.977 C 3224.623 1826.929, 3224.427 1825.725, 3223.347 1828.537 M 1690.145 1939.976 C 1696.442 1947.895, 1707.299 1959.188, 1715.436 1966.284 C 1719.321 1969.672, 1716.603 1966.607, 1709.395 1959.472 C 1702.188 1952.337, 1693.928 1943.800, 1691.040 1940.500 C 1685.934 1934.665, 1685.910 1934.650, 1690.145 1939.976 M 2190.234 1948.986 C 2186.788 1949.378, 2183.638 1950.055, 2183.234 1950.490 C 2182.830 1950.925, 2183.850 1950.937, 2185.500 1950.515 C 2187.150 1950.094, 2198.175 1949.431, 2210 1949.041 L 2231.500 1948.332 2214 1948.303 C 2204.375 1948.287, 2193.680 1948.594, 2190.234 1948.986 M 1278 2185.738 C 1277.999 2186.157, 1295.179 2186.377, 1316.176 2186.226 C 1346.207 2186.011, 1354.545 2186.224, 1355.252 2187.226 C 1355.933 2188.190, 1356.053 2188.135, 1355.743 2187 C 1355.390 2185.705, 1350.039 2185.464, 1316.667 2185.238 C 1295.400 2185.094, 1278 2185.319, 1278 2185.738 M 1586.750 2186.673 C 1581.841 2186.977, 1580 2187.472, 1580 2188.487 C 1580 2189.254, 1580.445 2190.157, 1580.989 2190.493 C 1581.540 2190.834, 1581.732 2190.464, 1581.422 2189.658 C 1580.416 2187.037, 1614.408 2186.218, 1624.500 2188.619 C 1626.410 2189.074, 1626.415 2189.043, 1624.628 2187.930 C 1622.659 2186.704, 1598.961 2185.918, 1586.750 2186.673 M 2347.790 2186.530 C 2347.093 2187.240, 2349.560 2193, 2350.561 2193 C 2350.841 2193, 2350.605 2192.130, 2350.035 2191.066 C 2347.747 2186.790, 2347.801 2186.781, 2374.750 2187.271 C 2388.912 2187.528, 2401.625 2188.053, 2403 2188.438 C 2405.341 2189.093, 2405.373 2189.055, 2403.500 2187.840 C 2402.029 2186.885, 2394.497 2186.445, 2375 2186.175 C 2360.425 2185.972, 2348.180 2186.133, 2347.790 2186.530 M 2886.734 2187.365 C 2884.112 2188.099, 2881.637 2189.063, 2881.234 2189.509 C 2880.830 2189.954, 2881.399 2189.993, 2882.498 2189.596 C 2888.298 2187.497, 2895.538 2186.823, 2907.877 2187.234 C 2915.369 2187.484, 2922.400 2188.017, 2923.500 2188.419 L 2925.500 2189.151 2923.500 2187.849 C 2920.604 2185.962, 2893.040 2185.600, 2886.734 2187.365 M 1420.998 2187.750 C 1420.998 2188.162, 1427.523 2188.364, 1435.498 2188.199 C 1443.474 2188.033, 1450 2188.280, 1450 2188.749 C 1450 2189.217, 1449.438 2190.231, 1448.750 2191.002 C 1447.687 2192.194, 1447.761 2192.206, 1449.250 2191.079 C 1450.213 2190.351, 1451 2189.135, 1451 2188.378 C 1451 2187.269, 1448.074 2187, 1436 2187 C 1427.750 2187, 1420.999 2187.338, 1420.998 2187.750 M 1719.999 2187.734 C 1719.999 2188.155, 1732.149 2188.373, 1746.999 2188.219 L 1774 2187.937 1774 2196.591 C 1774 2204.545, 1773.865 2205.134, 1772.336 2203.872 C 1770.828 2202.628, 1770.784 2202.710, 1771.871 2204.750 C 1774.258 2209.229, 1775.076 2207.124, 1774.786 2197.250 L 1774.500 2187.500 1747.250 2187.234 C 1732.263 2187.088, 1720 2187.313, 1719.999 2187.734 M 2504.515 2187.976 C 2504.172 2188.531, 2504.388 2189.775, 2504.994 2190.742 C 2505.948 2192.265, 2506.013 2192.200, 2505.480 2190.250 L 2504.865 2188 2531.883 2188 L 2558.900 2188 2559.275 2193.250 L 2559.649 2198.500 2559.575 2193 L 2559.500 2187.500 2532.319 2187.234 C 2514.843 2187.063, 2504.915 2187.328, 2504.515 2187.976 M 1633.712 2194.008 C 1638.212 2198.924, 1639.721 2205.892, 1638.020 2213.908 C 1636.619 2220.509, 1634.538 2223.876, 1628.716 2228.961 C 1626.635 2230.779, 1625.170 2232.504, 1625.460 2232.794 C 1625.750 2233.084, 1626.959 2232.461, 1628.147 2231.411 L 1630.305 2229.500 1629.653 2232.875 C 1629.294 2234.731, 1629 2236.694, 1629 2237.236 C 1629 2237.778, 1628.071 2237.159, 1626.936 2235.861 C 1625.800 2234.562, 1625.013 2233.964, 1625.186 2234.532 C 1625.590 2235.860, 1637.300 2249.977, 1642.500 2255.407 C 1644.996 2258.013, 1645.360 2258.252, 1643.469 2256.042 C 1638.197 2249.883, 1634 2244.153, 1634 2243.116 C 1634 2242.565, 1634.970 2240.470, 1636.156 2238.459 C 1637.906 2235.494, 1638.354 2232.983, 1638.529 2225.152 C 1638.648 2219.844, 1639.080 2213.619, 1639.489 2211.320 C 1640.651 2204.793, 1638.550 2197.890, 1634.181 2193.880 L 1630.500 2190.500 1633.712 2194.008 M 2371.405 2195.102 C 2369.662 2197.025, 2369.456 2199.466, 2368.986 2223.852 C 2368.704 2238.508, 2368.779 2252.006, 2369.153 2253.847 C 2369.792 2256.992, 2373.443 2262, 2375.097 2262 C 2375.509 2262, 2374.531 2260.685, 2372.923 2259.077 L 2370 2256.154 2370 2237.027 C 2370 2221.364, 2370.293 2217.334, 2371.617 2214.773 C 2373.107 2211.892, 2373.107 2211.552, 2371.617 2210.462 C 2370.486 2209.635, 2370 2207.715, 2370 2204.074 C 2370 2198.088, 2371.214 2195.257, 2374.315 2194.007 C 2375.780 2193.417, 2375.975 2193.106, 2374.905 2193.063 C 2374.028 2193.029, 2372.453 2193.946, 2371.405 2195.102 M 2525.557 2195.223 C 2524.318 2196.991, 2524 2200.466, 2524 2212.223 C 2524 2220.350, 2524.173 2227, 2524.385 2227 C 2525.548 2227, 2531.283 2224.072, 2530.184 2224.039 C 2529.461 2224.018, 2528.063 2224.431, 2527.078 2224.958 C 2525.399 2225.857, 2525.282 2225.037, 2525.190 2211.712 C 2525.115 2200.743, 2525.430 2196.993, 2526.570 2195.253 C 2528.481 2192.336, 2527.597 2192.309, 2525.557 2195.223 M 1987.556 2199 C 1988.705 2204.376, 1989.929 2221.032, 1989.944 2231.500 C 1989.958 2241.417, 1989.294 2248.819, 1987.612 2257.500 C 1987.249 2259.378, 1987.664 2258.816, 1988.723 2256 C 1991.199 2249.414, 1991.179 2207.668, 1988.697 2201 C 1987.775 2198.525, 1987.262 2197.625, 1987.556 2199 M 3084.590 2199.716 C 3082.905 2205.025, 3082.059 2219.083, 3082.031 2242.215 C 3082.003 2265.680, 3081.847 2268.008, 3080.250 2268.821 C 3078.818 2269.551, 3076.259 2267.286, 3066.163 2256.351 C 3059.377 2249.003, 3053.446 2243.224, 3052.982 2243.511 C 3052.518 2243.798, 3051.813 2243.506, 3051.415 2242.862 C 3050.963 2242.131, 3051.124 2241.959, 3051.845 2242.405 C 3054.479 2244.032, 3052.651 2241.566, 3047.250 2236.207 C 3044.088 2233.069, 3041.162 2230.614, 3040.750 2230.751 C 3040.337 2230.888, 3040.112 2230.615, 3040.250 2230.144 C 3040.387 2229.673, 3036.253 2224.675, 3031.062 2219.037 C 3022.914 2210.187, 3021.524 2209.056, 3020.892 2210.762 C 3020.490 2211.850, 3019.958 2219.435, 3019.710 2227.620 C 3019.463 2235.804, 3019.448 2240.408, 3019.679 2237.851 C 3020.038 2233.861, 3020.502 2233.035, 3022.953 2232.019 C 3025.211 2231.084, 3026.339 2231.115, 3028.338 2232.168 C 3029.729 2232.901, 3040.983 2244.349, 3053.347 2257.610 C 3065.711 2270.870, 3076.469 2281.966, 3077.254 2282.267 C 3081.785 2284.006, 3082.838 2277.298, 3082.949 2246 C 3083.001 2231.205, 3083.422 2224.180, 3084.461 2220.756 C 3085.541 2217.198, 3085.638 2215.261, 3084.851 2213.003 C 3084.134 2210.946, 3084.118 2208.175, 3084.801 2204.247 C 3085.803 2198.481, 3085.698 2196.226, 3084.590 2199.716 M 1320.175 2210.419 L 1320 2221.339 1322.496 2216.419 C 1325.505 2210.488, 1325.588 2209.321, 1323.055 2208.517 C 1321.629 2208.065, 1321.009 2206.779, 1320.730 2203.700 C 1320.521 2201.390, 1320.271 2204.414, 1320.175 2210.419 M 2353.413 2202 C 2353.666 2203.375, 2354.407 2210.125, 2355.060 2217 C 2356.119 2228.147, 2355.996 2235.533, 2354.477 2252 L 2354.061 2256.500 2354.978 2252.500 C 2357.653 2240.825, 2356.948 2208.429, 2353.869 2201.546 C 2353.061 2199.738, 2353.008 2199.791, 2353.413 2202 M 2409.207 2203.500 C 2412.474 2207.057, 2415 2211.613, 2415 2213.948 C 2415 2214.398, 2413.131 2214.122, 2410.846 2213.335 C 2403.199 2210.700, 2403.021 2212.489, 2410.246 2219.367 C 2414.234 2223.163, 2417.278 2227.014, 2417.923 2229.079 C 2418.856 2232.067, 2418.935 2231.659, 2418.544 2225.862 C 2417.887 2216.125, 2414.810 2208.296, 2409.756 2203.504 L 2405.533 2199.500 2409.207 2203.500 M 1623.853 2205.619 C 1624.047 2208.055, 1623.719 2210.634, 1623.124 2211.351 C 1622.346 2212.288, 1622.378 2213.541, 1623.239 2215.823 C 1624.251 2218.502, 1624.157 2219.496, 1622.634 2222.246 L 1620.833 2225.500 1622.869 2223 C 1625.240 2220.089, 1626.510 2211.980, 1625.517 2206.098 C 1624.572 2200.507, 1623.419 2200.175, 1623.853 2205.619 M 2004.250 2210.613 C 2002.756 2221.508, 2002.604 2249.036, 2004.011 2254.100 C 2004.561 2256.080, 2005.985 2258.555, 2007.175 2259.600 C 2009.130 2261.316, 2009.105 2261.177, 2006.920 2258.166 C 2004.581 2254.943, 2004.507 2254.317, 2004.725 2239.367 C 2004.958 2223.308, 2005.736 2219.854, 2010.611 2213.217 C 2012.243 2210.995, 2012.206 2210.904, 2009.192 2209.766 C 2006.639 2208.803, 2006.045 2207.977, 2005.798 2205.049 C 2005.598 2202.669, 2005.088 2204.501, 2004.250 2210.613 M 2509.494 2206.500 C 2511.262 2226.055, 2511.051 2236.737, 2508.556 2254 C 2508.262 2256.036, 2508.708 2255.199, 2509.622 2252 C 2511.544 2245.275, 2511.946 2209.342, 2510.153 2204.500 C 2509.141 2201.767, 2509.082 2201.945, 2509.494 2206.500 M 3073.859 2210.737 C 3074.329 2221.976, 3073.051 2242.149, 3071.913 2241.446 C 3071.423 2241.144, 3071.303 2241.625, 3071.644 2242.515 C 3071.986 2243.406, 3072.587 2243.767, 3072.980 2243.317 C 3074.161 2241.966, 3076.243 2212.807, 3075.466 2208.500 C 3074.140 2201.157, 3073.496 2202.053, 3073.859 2210.737 M 1305.929 2205.500 L 1305.500 2208.500 1295.888 2208.183 C 1285.611 2207.845, 1283 2208.835, 1283 2213.071 C 1283 2215.633, 1285.897 2215.579, 1293.920 2212.869 C 1299.864 2210.862, 1300.425 2210.832, 1303.615 2212.353 L 1307 2213.968 1307.214 2227.734 L 1307.428 2241.500 1307.739 2230.500 C 1308.063 2219.034, 1306.695 2200.137, 1305.929 2205.500 M 1500.333 2208.750 C 1499.307 2216.031, 1499.617 2245.358, 1500.769 2250 C 1501.335 2252.279, 1501.481 2248.890, 1501.187 2240.284 C 1500.826 2229.665, 1501.094 2225.691, 1502.553 2220.066 C 1504.206 2213.691, 1504.228 2212.906, 1502.797 2211.282 C 1501.768 2210.115, 1501.399 2208.379, 1501.727 2206.250 C 1502.002 2204.463, 1501.983 2203, 1501.685 2203 C 1501.388 2203, 1500.779 2205.588, 1500.333 2208.750 M 1601.039 2206.500 C 1600.536 2214.214, 1601.206 2224.357, 1602.338 2226.170 C 1602.967 2227.176, 1604.148 2228, 1604.963 2228 C 1605.955 2228, 1605.710 2227.485, 1604.223 2226.443 C 1601.731 2224.698, 1601.133 2218.488, 1603.102 2214.809 C 1603.888 2213.340, 1603.899 2212.141, 1603.137 2210.625 C 1602.551 2209.456, 1601.897 2207.150, 1601.685 2205.500 C 1601.353 2202.917, 1601.263 2203.056, 1601.039 2206.500 M 1342.081 2209.402 C 1341.154 2210.520, 1341.485 2211.198, 1343.709 2212.740 C 1349.295 2216.612, 1353 2216.282, 1353 2211.913 C 1353 2208.372, 1344.549 2206.429, 1342.081 2209.402 M 2049.374 2211.353 L 2050.851 2214.888 2045.926 2214.305 C 2043.217 2213.984, 2041 2213.956, 2041 2214.243 C 2041 2214.529, 2043.700 2217.498, 2047 2220.839 L 2053 2226.914 2053 2222.635 C 2053 2218.104, 2050.465 2209.406, 2048.855 2208.410 C 2048.328 2208.085, 2048.562 2209.409, 2049.374 2211.353 M 1429.461 2228 C 1429.483 2238.725, 1429.179 2249.525, 1428.787 2252 C 1428.208 2255.657, 1428.274 2256.031, 1429.139 2254 C 1430.543 2250.705, 1431.365 2222.151, 1430.276 2214.500 C 1429.634 2209.988, 1429.432 2213.335, 1429.461 2228 M 1739.554 2211.250 C 1739.343 2211.938, 1738.917 2214.624, 1738.608 2217.221 C 1738.137 2221.179, 1738.406 2222.337, 1740.273 2224.381 C 1742.369 2226.676, 1742.706 2226.740, 1746 2225.460 L 1749.500 2224.100 1745.376 2224.658 C 1742.908 2224.991, 1740.984 2224.783, 1740.585 2224.138 C 1740.219 2223.545, 1740.889 2220.805, 1742.074 2218.050 C 1743.259 2215.294, 1743.967 2212.356, 1743.646 2211.520 C 1742.943 2209.688, 1740.091 2209.500, 1739.554 2211.250 M 2668 2210.927 C 2668 2212.391, 2673.076 2216, 2675.135 2216 C 2677.688 2216, 2677.483 2213.452, 2674.777 2211.557 C 2672.346 2209.853, 2668 2209.450, 2668 2210.927 M 2774.629 2213.827 C 2774.295 2215.847, 2774.080 2222.900, 2774.151 2229.500 C 2774.275 2241.071, 2774.306 2241.231, 2775.002 2233.981 C 2775.399 2229.846, 2776.482 2223.855, 2777.409 2220.667 C 2779.153 2214.665, 2778.896 2211.558, 2776.580 2210.669 C 2775.661 2210.316, 2775.045 2211.313, 2774.629 2213.827 M 2914.541 2210.933 C 2913.907 2211.959, 2919.093 2217.177, 2922.628 2219.068 C 2927.757 2221.813, 2929.944 2216.854, 2925.545 2212.455 C 2923.760 2210.669, 2922.004 2210, 2919.104 2210 C 2916.912 2210, 2914.859 2210.420, 2914.541 2210.933 M 2143.090 2215.316 C 2142.988 2217.376, 2144.782 2221.164, 2146.340 2222.177 C 2146.913 2222.549, 2147.275 2224.912, 2147.144 2227.428 C 2147 2230.222, 2147.649 2233.679, 2148.812 2236.309 C 2150.643 2240.447, 2152.963 2242.743, 2165 2252.324 C 2169.233 2255.693, 2170.445 2257.255, 2170.262 2259.101 C 2170.024 2261.498, 2170.026 2261.498, 2172.512 2258.694 C 2173.880 2257.151, 2175 2254.774, 2175 2253.412 C 2175 2247.862, 2170.091 2240.100, 2163 2234.440 C 2161.005 2232.848, 2162.080 2234.349, 2165.500 2237.931 C 2170.925 2243.612, 2171.173 2244.050, 2168.093 2242.500 C 2164.374 2240.629, 2155 2232.272, 2155 2230.828 C 2155 2230.334, 2156.012 2230.408, 2157.250 2230.994 C 2159.170 2231.902, 2159.133 2231.797, 2157 2230.282 C 2151.242 2226.192, 2144.921 2219.500, 2144.081 2216.605 C 2143.586 2214.897, 2143.140 2214.317, 2143.090 2215.316 M 1880.594 2219.678 C 1878.526 2225.747, 1878.575 2228.888, 1880.750 2229.781 C 1881.975 2230.285, 1881.151 2230.680, 1878 2231.100 C 1874.260 2231.598, 1874.812 2231.725, 1881.269 2231.850 L 1889.038 2232 1888.413 2229.250 C 1887.266 2224.209, 1883.742 2215, 1882.960 2215 C 1882.535 2215, 1881.471 2217.105, 1880.594 2219.678 M 2870.250 2226.500 C 2870.212 2234.942, 2870.406 2236.629, 2871.084 2233.754 C 2871.570 2231.694, 2873.331 2227.306, 2874.998 2224.004 C 2878.125 2217.810, 2877.618 2216.478, 2873.290 2219.510 C 2871.251 2220.937, 2871.112 2220.870, 2870.717 2218.260 C 2870.488 2216.742, 2870.277 2220.450, 2870.250 2226.500 M 1759.195 2219.738 C 1756.828 2220.555, 1755.083 2221.416, 1755.318 2221.651 C 1755.553 2221.886, 1757.715 2221.392, 1760.122 2220.554 C 1762.530 2219.715, 1764.838 2219.023, 1765.250 2219.015 C 1765.662 2219.007, 1766 2222.825, 1766 2227.500 C 1766 2232.175, 1765.727 2236, 1765.394 2236 C 1765.061 2236, 1762.086 2235.300, 1758.784 2234.444 C 1755.481 2233.588, 1752.587 2233.079, 1752.353 2233.313 C 1751.930 2233.737, 1763.968 2237, 1765.956 2237 C 1766.608 2237, 1767 2233.436, 1767 2227.500 C 1767 2216.811, 1767.174 2216.984, 1759.195 2219.738 M 3165.988 2220.241 C 3166.671 2221.198, 3167.013 2223.448, 3166.747 2225.241 C 3166.131 2229.403, 3168.362 2236.687, 3171.370 2240.333 C 3172.655 2241.891, 3177.935 2246.204, 3183.103 2249.918 C 3188.272 2253.632, 3192.500 2257.259, 3192.500 2257.978 C 3192.500 2261.757, 3183.527 2264.398, 3176.902 2262.568 C 3175.179 2262.092, 3174.924 2262.173, 3176 2262.854 C 3177.606 2263.871, 3180.733 2264.289, 3185.393 2264.111 C 3189.547 2263.952, 3198 2255.385, 3198 2251.334 C 3198 2249.711, 3197.292 2247.509, 3196.426 2246.441 C 3195.560 2245.374, 3195.170 2245.117, 3195.559 2245.871 C 3196.662 2248.005, 3181.469 2237.412, 3179.090 2234.387 C 3176.699 2231.347, 3177.035 2229.892, 3179.547 2232.404 C 3181.217 2234.074, 3187 2237.375, 3187 2236.659 C 3187 2236.443, 3183.738 2234.126, 3179.750 2231.509 C 3175.762 2228.893, 3170.756 2224.896, 3168.623 2222.626 C 3166.491 2220.357, 3165.305 2219.283, 3165.988 2220.241 M 2641.049 2226.759 C 2642.053 2237.594, 2644.843 2241.247, 2660.250 2251.894 C 2664.512 2254.840, 2668 2257.611, 2668 2258.052 C 2668 2258.494, 2666.814 2259.788, 2665.365 2260.927 C 2663.916 2262.067, 2663.153 2263, 2663.669 2263 C 2665.164 2263, 2670.710 2256.729, 2671.485 2254.163 C 2672.746 2249.985, 2671.144 2245.613, 2666.654 2240.980 C 2664.266 2238.516, 2660.779 2235.686, 2658.906 2234.692 C 2655.621 2232.949, 2655.583 2232.949, 2657.850 2234.692 C 2662.914 2238.587, 2669 2244.300, 2669 2245.158 C 2669 2246.652, 2654.473 2236.371, 2652.647 2233.584 C 2650.876 2230.881, 2651.634 2230.103, 2653.947 2232.250 C 2655.027 2233.253, 2655.149 2233.245, 2654.563 2232.209 C 2654.161 2231.500, 2651.998 2229.761, 2649.756 2228.346 C 2647.514 2226.931, 2644.497 2224.478, 2643.052 2222.896 L 2640.424 2220.019 2641.049 2226.759 M 2524.528 2232.333 L 2522.138 2234.500 2523.538 2243.580 C 2524.308 2248.574, 2525.340 2253.746, 2525.831 2255.073 C 2527.138 2258.606, 2526.424 2245.435, 2525.069 2241.007 C 2524.481 2239.085, 2524 2236.755, 2524 2235.828 C 2524 2233.325, 2526.683 2231.104, 2528.982 2231.706 C 2530.092 2231.996, 2531 2232.008, 2531 2231.733 C 2531 2231.458, 2530.082 2230.993, 2528.959 2230.700 C 2527.686 2230.367, 2526.019 2230.981, 2524.528 2232.333 M 1442.866 2240.250 C 1442.565 2256.481, 1443.275 2259.213, 1449.161 2264.498 L 1452.500 2267.496 1449.311 2263.998 C 1447.558 2262.074, 1445.673 2259.307, 1445.124 2257.849 C 1443.933 2254.690, 1445.398 2252.991, 1451.537 2250.410 C 1455.108 2248.908, 1455.316 2248.632, 1453.640 2247.622 C 1445.891 2242.950, 1444 2240.964, 1444 2237.494 L 1444 2234 1465.927 2234 C 1485.968 2234, 1487.893 2234.150, 1488.311 2235.750 C 1488.655 2237.067, 1488.797 2236.943, 1488.884 2235.250 L 1489 2233 1466 2233 L 1443 2233 1442.866 2240.250 M 1599.856 2235.474 C 1599.502 2235.830, 1599.839 2238.456, 1600.604 2241.310 C 1601.368 2244.165, 1602.423 2250.100, 1602.948 2254.500 C 1603.472 2258.900, 1604.205 2263.963, 1604.576 2265.750 L 1605.250 2269 1592.566 2269 C 1583.233 2269, 1580.070 2268.695, 1580.595 2267.845 C 1581.041 2267.124, 1580.869 2266.963, 1580.138 2267.415 C 1577.815 2268.850, 1580.226 2270, 1585.559 2270 C 1588.552 2270, 1590.995 2270.113, 1590.988 2270.250 C 1590.982 2270.387, 1590.312 2272.975, 1589.500 2276 C 1588.688 2279.025, 1588.018 2282.030, 1588.012 2282.679 C 1587.968 2287.079, 1598.259 2288.741, 1602.053 2284.947 C 1603.770 2283.230, 1604.002 2282.124, 1603.469 2278.197 C 1603.119 2275.614, 1602.614 2272.713, 1602.349 2271.750 C 1601.999 2270.484, 1602.448 2270, 1603.974 2270 C 1605.996 2270, 1606.055 2269.684, 1605.390 2262.348 C 1604.778 2255.591, 1604.912 2254.538, 1606.537 2253.349 C 1608.292 2252.066, 1608.252 2251.872, 1605.669 2249.176 C 1601.783 2245.120, 1599.414 2235.993, 1602.250 2236.006 C 1605.878 2236.022, 1611.344 2238.461, 1614.103 2241.294 L 1617.223 2244.500 1615.007 2241.363 C 1613.788 2239.637, 1611.698 2237.728, 1610.363 2237.119 C 1607.183 2235.671, 1600.675 2234.651, 1599.856 2235.474 M 2432.116 2237.331 C 2431.951 2239.932, 2425.251 2253.051, 2422.667 2255.833 C 2421.475 2257.116, 2417.861 2259.928, 2414.636 2262.083 C 2411.411 2264.237, 2409.078 2266, 2409.452 2266 C 2410.652 2266, 2414.417 2263.772, 2417.376 2261.310 C 2418.957 2259.994, 2420.465 2259.132, 2420.727 2259.394 C 2421.706 2260.373, 2417.710 2270.198, 2414.339 2275.098 C 2412.417 2277.892, 2411.061 2280.394, 2411.325 2280.659 C 2412.326 2281.659, 2419.778 2276.988, 2423.169 2273.235 C 2429.356 2266.387, 2432.309 2258.783, 2432.795 2248.444 C 2433.030 2243.464, 2432.999 2238.514, 2432.727 2237.444 C 2432.278 2235.682, 2432.221 2235.671, 2432.116 2237.331 M 2906.058 2237.221 C 2906.090 2237.924, 2908.453 2240.002, 2911.308 2241.837 C 2915.914 2244.798, 2916.228 2244.884, 2914.092 2242.604 C 2912.767 2241.191, 2910.855 2239.771, 2909.842 2239.450 C 2908.829 2239.128, 2908 2238.431, 2908 2237.901 C 2908 2237.321, 2912.663 2237.049, 2919.707 2237.218 C 2931.225 2237.495, 2931.425 2237.540, 2932.153 2240 C 2932.841 2242.327, 2932.879 2242.293, 2932.696 2239.500 L 2932.500 2236.500 2919.250 2236.221 C 2908.988 2236.005, 2906.013 2236.230, 2906.058 2237.221 M 2185.381 2239.500 C 2187.716 2248.617, 2186.526 2256.768, 2182.193 2261.342 C 2179.467 2264.218, 2173.572 2267.669, 2169 2269.065 C 2167.325 2269.576, 2167.088 2269.856, 2168.282 2269.914 C 2169.262 2269.961, 2171.645 2269.340, 2173.576 2268.533 C 2177.950 2266.705, 2178.520 2267.676, 2177.705 2275.568 C 2177.123 2281.210, 2177.591 2281.825, 2181.055 2279.970 C 2184.430 2278.164, 2186.115 2273.423, 2185.948 2266.200 C 2185.863 2262.515, 2186.317 2257.251, 2186.956 2254.502 C 2188.161 2249.327, 2187.612 2241.486, 2185.868 2238.952 C 2185.085 2237.814, 2184.980 2237.933, 2185.381 2239.500 M 1873.419 2240.016 C 1871.724 2240.540, 1869.474 2241.926, 1868.419 2243.095 L 1866.500 2245.221 1870 2243.205 C 1874.675 2240.513, 1880.885 2239.623, 1885.785 2240.942 C 1891.514 2242.485, 1892.642 2246.607, 1888.963 2252.560 L 1886.926 2255.856 1890.512 2258.678 C 1894.751 2262.014, 1898.325 2268.625, 1899.926 2276.092 C 1900.561 2279.052, 1901.712 2282.437, 1902.483 2283.614 C 1904.228 2286.278, 1908.055 2287.310, 1911.431 2286.026 C 1914.614 2284.816, 1914.769 2281.959, 1912 2275.500 C 1910.900 2272.934, 1910 2270.672, 1910 2270.475 C 1910 2270.277, 1911.912 2269.943, 1914.250 2269.732 C 1916.588 2269.522, 1914.101 2269.271, 1908.725 2269.175 C 1897.589 2268.976, 1897.886 2269.223, 1896.506 2259 C 1895.563 2252.016, 1892.517 2243.777, 1890.053 2241.548 C 1887.790 2239.500, 1877.997 2238.598, 1873.419 2240.016 M 2063.521 2245.713 C 2060.765 2252.038, 2055.397 2258.517, 2048.939 2263.311 C 2047.598 2264.307, 2047.175 2264.803, 2048 2264.413 C 2048.825 2264.024, 2051.012 2262.586, 2052.860 2261.218 L 2056.220 2258.730 2055.503 2261.115 C 2054.117 2265.724, 2050.880 2272.538, 2048.305 2276.268 C 2045.275 2280.656, 2045.749 2281.761, 2049.918 2280.034 C 2054.890 2277.975, 2060.075 2272.050, 2063.835 2264.132 C 2066.882 2257.715, 2067.464 2255.337, 2067.823 2247.810 C 2068.056 2242.945, 2067.842 2239, 2067.345 2239 C 2066.850 2239, 2065.129 2242.021, 2063.521 2245.713 M 2856.074 2242.072 C 2856.033 2242.386, 2856.633 2244.636, 2857.406 2247.072 C 2858.180 2249.507, 2859.359 2254.277, 2860.026 2257.672 C 2861.642 2265.889, 2865.920 2273.099, 2872.055 2277.949 C 2876.686 2281.610, 2883.272 2284.062, 2884.683 2282.651 C 2885.007 2282.326, 2882.792 2279.383, 2879.761 2276.109 C 2873.857 2269.732, 2870.396 2263.071, 2873.983 2264.991 C 2877.603 2266.928, 2877.248 2265.980, 2873.390 2263.403 C 2866.526 2258.819, 2861.837 2253.652, 2858.957 2247.500 C 2857.412 2244.200, 2856.115 2241.757, 2856.074 2242.072 M 1757.320 2244.507 C 1755.626 2245.220, 1753.922 2246.317, 1753.534 2246.945 C 1752.449 2248.701, 1754.829 2250.877, 1758.611 2251.587 C 1762.789 2252.371, 1765.219 2250.646, 1764.801 2247.193 C 1764.411 2243.979, 1761.264 2242.849, 1757.320 2244.507 M 2541.370 2244.440 C 2537.383 2246.175, 2536.384 2247.812, 2538.201 2249.630 C 2540.255 2251.683, 2546.646 2252.539, 2548.492 2251.007 C 2550.613 2249.247, 2550.370 2245.268, 2548.066 2244.035 C 2545.647 2242.741, 2545.216 2242.767, 2541.370 2244.440 M 1617.934 2246.876 C 1618.808 2248.509, 1618.332 2248.983, 1614.262 2250.538 L 1609.585 2252.324 1614.128 2256.412 C 1616.626 2258.660, 1621.907 2264.905, 1625.862 2270.289 C 1633.263 2280.363, 1640.475 2286.362, 1644.490 2285.786 C 1647.896 2285.297, 1647.269 2282.517, 1642.373 2276.397 C 1635.103 2267.309, 1635.381 2267.888, 1638.867 2269.104 C 1640.567 2269.696, 1642.530 2269.951, 1643.229 2269.669 C 1643.928 2269.388, 1643.588 2269.122, 1642.473 2269.079 C 1641.357 2269.036, 1639.444 2268.299, 1638.221 2267.442 C 1636.997 2266.585, 1635.578 2266.143, 1635.067 2266.458 C 1634.556 2266.774, 1633.813 2266.506, 1633.415 2265.862 C 1632.926 2265.071, 1633.147 2264.951, 1634.095 2265.491 C 1634.868 2265.931, 1633.599 2264.625, 1631.276 2262.590 C 1628.953 2260.554, 1624.956 2255.764, 1622.393 2251.945 C 1617.949 2245.320, 1615.785 2242.860, 1617.934 2246.876 M 1868.464 2252.250 C 1866.377 2256.732, 1865.159 2263, 1866.374 2263 C 1867.401 2263, 1875.968 2257.744, 1877.034 2256.459 C 1878.030 2255.259, 1877.742 2254.236, 1875.494 2250.991 C 1873.973 2248.796, 1872.318 2247, 1871.818 2247 C 1871.317 2247, 1869.808 2249.363, 1868.464 2252.250 M 3205.087 2258.542 C 3203.214 2262.073, 3201.506 2263.590, 3196.708 2265.988 C 3193.393 2267.645, 3189.965 2269.036, 3189.090 2269.079 C 3188.131 2269.127, 3187.977 2269.352, 3188.703 2269.647 C 3189.364 2269.915, 3192.001 2269.208, 3194.562 2268.076 C 3197.122 2266.943, 3199.678 2266.301, 3200.240 2266.648 C 3200.868 2267.037, 3201.034 2269.734, 3200.669 2273.640 C 3200.342 2277.138, 3200.468 2280, 3200.949 2280 C 3202.696 2280, 3206.937 2273.852, 3207.590 2270.374 C 3207.958 2268.412, 3207.733 2265.053, 3207.091 2262.909 C 3206.225 2260.018, 3206.212 2258.472, 3207.043 2256.920 C 3207.658 2255.770, 3208 2254.666, 3207.801 2254.468 C 3207.602 2254.269, 3206.381 2256.102, 3205.087 2258.542 M 2680.583 2256.738 C 2680.253 2257.777, 2678.461 2260.289, 2676.600 2262.321 C 2674.650 2264.449, 2673.648 2266.282, 2674.234 2266.645 C 2674.843 2267.021, 2675.046 2269.832, 2674.741 2273.637 C 2674.214 2280.207, 2674.532 2280.879, 2677.163 2278.750 C 2681.570 2275.183, 2683.363 2267.240, 2681.055 2261.500 C 2680.613 2260.400, 2680.681 2258.674, 2681.207 2257.664 C 2681.732 2256.655, 2681.942 2255.608, 2681.672 2255.339 C 2681.403 2255.070, 2680.913 2255.699, 2680.583 2256.738 M 2929.094 2261 C 2929.026 2263.475, 2928.639 2266.008, 2928.235 2266.630 C 2927.831 2267.251, 2922.325 2268.228, 2916 2268.801 C 2905.953 2269.710, 2905.556 2269.809, 2912.855 2269.580 L 2921.210 2269.319 2920.641 2272.822 C 2920.329 2274.749, 2918.682 2278.056, 2916.983 2280.171 C 2915.283 2282.286, 2914.168 2284.463, 2914.505 2285.008 C 2914.842 2285.554, 2917.263 2286, 2919.885 2286 C 2926.748 2286, 2928.707 2283.573, 2930.023 2273.440 C 2930.676 2268.422, 2930.717 2263.844, 2930.137 2261 L 2929.219 2256.500 2929.094 2261 M 1303.131 2261.649 C 1301.093 2269.496, 1301.084 2269.470, 1305.786 2269.809 L 1310.073 2270.119 1309.408 2277.455 C 1308.796 2284.205, 1308.908 2284.880, 1310.806 2285.896 C 1313.852 2287.526, 1320.603 2287.255, 1322.429 2285.429 C 1324.383 2283.474, 1324.398 2281.631, 1322.511 2275.409 C 1321.692 2272.709, 1321.017 2270.387, 1321.011 2270.250 C 1321.005 2270.113, 1322.323 2270, 1323.941 2270 C 1327.434 2270, 1328.521 2268.674, 1327.006 2266.258 C 1326.052 2264.735, 1325.987 2264.800, 1326.520 2266.750 C 1327.133 2268.993, 1327.097 2269, 1315.067 2269 C 1301.870 2269, 1302.397 2269.307, 1303.969 2262.528 C 1305.163 2257.374, 1304.439 2256.614, 1303.131 2261.649 M 1863 2260.860 C 1863 2261.334, 1864.111 2263.359, 1865.470 2265.360 L 1867.940 2269 1856.970 2269 C 1850.936 2269, 1846 2268.745, 1846 2268.434 C 1846 2268.123, 1846.475 2266.886, 1847.055 2265.684 C 1848.074 2263.574, 1848.057 2263.566, 1846.555 2265.441 C 1843.259 2269.555, 1844.278 2270, 1857 2270 C 1863.600 2270, 1869 2269.832, 1869 2269.626 C 1869 2268.914, 1863.827 2260, 1863.415 2260 C 1863.187 2260, 1863 2260.387, 1863 2260.860 M 1424.981 2264.679 C 1424.172 2266.781, 1423.358 2268.838, 1423.172 2269.250 C 1422.986 2269.662, 1425.306 2270, 1428.328 2270 L 1433.823 2270 1432.390 2276.143 C 1431.118 2281.592, 1431.131 2282.551, 1432.501 2284.643 C 1433.767 2286.574, 1434.901 2286.997, 1438.773 2286.985 C 1445.932 2286.961, 1446.729 2286.117, 1445.084 2280.304 C 1444.336 2277.662, 1443.510 2274.262, 1443.248 2272.750 L 1442.773 2270 1448.887 2270 C 1454.635 2270, 1456.481 2269.034, 1453.845 2267.405 C 1453.130 2266.962, 1452.962 2267.130, 1453.405 2267.845 C 1453.932 2268.699, 1450.181 2269, 1439.033 2269 L 1423.949 2269 1425.535 2265.932 C 1426.408 2264.245, 1426.971 2262.413, 1426.787 2261.862 C 1426.603 2261.310, 1425.791 2262.578, 1424.981 2264.679 M 2504.226 2266.250 C 2503.552 2268.116, 2503 2269.948, 2503 2270.321 C 2503 2270.694, 2505.414 2271, 2508.364 2271 L 2513.727 2271 2512.145 2277.614 C 2510.565 2284.215, 2510.567 2284.231, 2512.892 2286.114 C 2514.566 2287.469, 2516.810 2287.996, 2520.861 2287.986 C 2531.649 2287.960, 2532.704 2286.828, 2528.604 2279.678 C 2523.426 2270.650, 2522.874 2271.096, 2539.691 2270.748 C 2549.592 2270.544, 2546.131 2270.369, 2529.250 2270.221 C 2515.363 2270.100, 2504 2269.745, 2504 2269.434 C 2504 2269.123, 2504.479 2267.973, 2505.065 2266.879 C 2505.651 2265.784, 2505.977 2264.432, 2505.791 2263.874 C 2505.605 2263.316, 2504.901 2264.385, 2504.226 2266.250 M 1483.150 2266.750 C 1483.005 2269.882, 1483.140 2270, 1486.866 2270 L 1490.731 2270 1489.909 2274.250 C 1488.635 2280.834, 1488.839 2282.839, 1491 2285 C 1493.198 2287.198, 1498.842 2287.690, 1502.066 2285.965 C 1504.128 2284.861, 1504.556 2281.638, 1503.146 2277.815 C 1502.677 2276.542, 1501.993 2274.262, 1501.627 2272.750 C 1500.976 2270.058, 1501.056 2270, 1505.481 2270 C 1507.966 2270, 1510.001 2269.662, 1510.002 2269.250 C 1510.003 2268.838, 1504.185 2268.637, 1497.073 2268.805 L 1484.143 2269.109 1483.722 2266.305 C 1483.319 2263.627, 1483.293 2263.647, 1483.150 2266.750 M 2782.405 2266.750 L 2784.310 2269 2769.238 2269 C 2758.117 2269, 2754.034 2268.672, 2753.662 2267.750 C 2753.361 2267.003, 2753.126 2267.205, 2753.079 2268.250 C 2753.013 2269.719, 2753.904 2270, 2758.625 2270 L 2764.250 2270 2763.548 2273.250 C 2761.657 2281.998, 2761.655 2284.275, 2763.539 2285.652 C 2765.717 2287.244, 2774.304 2287.443, 2777.066 2285.965 C 2779.395 2284.718, 2779.537 2281.340, 2777.537 2274.750 L 2776.096 2270 2780.548 2270 C 2785.540 2270, 2786.037 2269.188, 2782.750 2266.405 L 2780.500 2264.500 2782.405 2266.750 M 1719.200 2267.200 C 1716.512 2269.888, 1717.891 2271, 1723.909 2271 L 1729.819 2271 1728.421 2276.250 C 1726.628 2282.985, 1726.651 2284.508, 1728.571 2286.429 C 1730.403 2288.260, 1740.963 2288.625, 1744.066 2286.965 C 1746.578 2285.620, 1746.503 2284.507, 1743.496 2278.581 C 1742.123 2275.875, 1741 2273.075, 1741 2272.358 C 1741 2271.363, 1744.364 2270.982, 1755.250 2270.748 C 1764.199 2270.555, 1760.107 2270.359, 1744.250 2270.220 C 1730.362 2270.099, 1719 2269.640, 1719 2269.200 C 1719 2268.760, 1719.540 2267.860, 1720.200 2267.200 C 1720.860 2266.540, 1721.175 2266, 1720.900 2266 C 1720.625 2266, 1719.860 2266.540, 1719.200 2267.200 M 2349.667 2267.667 C 2349.300 2268.033, 2349 2268.933, 2349 2269.667 C 2349 2270.604, 2350.521 2271, 2354.125 2271 L 2359.250 2271 2358.548 2274.250 C 2356.612 2283.207, 2356.679 2284.662, 2359.109 2286.364 C 2361.470 2288.017, 2369.320 2288.557, 2373.750 2287.370 C 2376.589 2286.609, 2376.640 2283.881, 2373.862 2281.405 C 2371.817 2279.583, 2369 2274.171, 2369 2272.066 C 2369 2271.483, 2373.477 2270.934, 2379.750 2270.746 C 2385.850 2270.564, 2381.694 2270.333, 2370.143 2270.212 C 2352.515 2270.028, 2349.863 2269.799, 2350.362 2268.500 C 2350.980 2266.889, 2350.736 2266.597, 2349.667 2267.667 M 3004.667 2267.667 C 3002.957 2269.377, 3004.500 2270, 3010.444 2270 L 3016.888 2270 3014.883 2274.532 C 3012.194 2280.610, 3012.667 2285.173, 3016.110 2286.376 C 3019.413 2287.530, 3023.588 2286.517, 3024.415 2284.361 C 3024.773 2283.428, 3023.753 2279.933, 3022.078 2276.352 L 3019.105 2270 3025.553 2270 C 3029.099 2270, 3032.001 2269.662, 3032.002 2269.250 C 3032.003 2268.838, 3025.886 2268.637, 3018.408 2268.805 C 3009.054 2269.015, 3005.017 2268.781, 3005.466 2268.055 C 3006.193 2266.878, 3005.696 2266.637, 3004.667 2267.667 M 1989.686 2270.729 L 1993.872 2271.109 1992.447 2275.804 C 1990.257 2283.020, 1990.542 2285.875, 1993.565 2287.025 C 1996.409 2288.106, 2005.253 2288.307, 2008.750 2287.370 C 2011.769 2286.561, 2011.583 2284.616, 2008.063 2280.191 C 2006.447 2278.161, 2004.828 2275.279, 2004.464 2273.786 L 2003.801 2271.072 2014.151 2270.747 C 2019.843 2270.568, 2015.725 2270.406, 2005 2270.386 C 1994.275 2270.366, 1987.384 2270.520, 1989.686 2270.729 M 1858.299 2275.250 C 1852.139 2282.013, 1853.662 2288.519, 1860.787 2285.883 C 1863.138 2285.013, 1863.593 2282.217, 1862.375 2276.125 C 1861.631 2272.405, 1861.012 2272.272, 1858.299 2275.250 M 2145 2279.946 C 2145 2282.223, 2150.699 2286.853, 2154.343 2287.537 C 2158.479 2288.312, 2163 2287.471, 2163 2285.926 C 2163 2284.648, 2152.682 2279.991, 2148.250 2279.268 C 2146.085 2278.915, 2145 2279.141, 2145 2279.946 M 1773.724 2281.774 C 1770.343 2283.870, 1770.537 2286.620, 1774.037 2286.218 C 1777.190 2285.856, 1779.443 2283.598, 1778.668 2281.578 C 1777.909 2279.599, 1777.187 2279.627, 1773.724 2281.774" stroke="none" fill="#f4d889" fill-rule="evenodd"/></svg>